<?xml version="1.0" encoding="UTF-8"?> <svg xmlns="http://www.w3.org/2000/svg" width="400" height="95" fill="none" viewBox="0 0 400 95"><defs><clipPath id="a"><path fill="#fff" d="M0 0h400v95H0z"></path></clipPath></defs><g clip-path="url(#a)"><mask id="b" width="400" height="95" x="0" y="0" maskUnits="userSpaceOnUse" style="mask-type:luminance"><path fill="#fff" d="M0 0h400v95H0V0Z"></path></mask><g mask="url(#b)"><mask id="c" width="400" height="95" x="0" y="0" maskUnits="userSpaceOnUse" style="mask-type:luminance"><path fill="#fff" d="M0 0h400v94.815H0V0Z"></path></mask><g mask="url(#c)"><path fill="#fff" d="M120.992 65.184V26.25h5.814v38.933h-5.814Zm4.747 0V60.01h17.547v5.173h-17.547Zm25.061 0V36.599h5.706v28.586l-5.706-.001Zm-4.32-24.16v-4.425h10.026v4.426l-10.026-.001Zm6.08-8.746c-1.209 0-2.116-.32-2.72-.96-.569-.64-.854-1.458-.854-2.454 0-.995.285-1.813.854-2.453.604-.64 1.511-.96 2.72-.96 1.208 0 2.097.32 2.666.96.605.64.907 1.458.907 2.453 0 .996-.302 1.814-.907 2.454-.569.64-1.458.96-2.666.96Zm14.216 32.906V35.319c0-3.2.853-5.547 2.56-7.04 1.707-1.53 4.213-2.294 7.52-2.294h3.573v4.64h-4.32c-1.28 0-2.258.356-2.933 1.067-.676.675-1.013 1.618-1.013 2.827v30.666l-5.387-.001Zm-3.893-24v-4.265h18.08v4.266l-18.08-.001Zm35.517 24.96c-2.489 0-4.658-.426-6.507-1.28a13.033 13.033 0 0 1-4.48-3.36 14.983 14.983 0 0 1-2.56-4.746A17.564 17.564 0 0 1 184 51.37v-.96c0-1.884.284-3.698.853-5.44a14.99 14.99 0 0 1 2.56-4.747c1.173-1.422 2.649-2.542 4.427-3.36 1.777-.853 3.857-1.28 6.24-1.28 3.093 0 5.653.676 7.68 2.027a12.595 12.595 0 0 1 4.533 5.227 15.484 15.484 0 0 1 1.547 6.826v2.4h-25.384v-4h21.387l-1.44 2.08c0-1.99-.303-3.698-.907-5.12a7.05 7.05 0 0 0-2.773-3.306c-1.209-.818-2.756-1.227-4.64-1.227-1.956 0-3.574.444-4.854 1.333-1.28.89-2.24 2.116-2.88 3.68-.64 1.53-.96 3.325-.96 5.387 0 1.99.32 3.769.96 5.333.64 1.565 1.618 2.79 2.934 3.68 1.351.89 3.057 1.334 5.12 1.334 2.133 0 3.857-.463 5.173-1.387 1.351-.924 2.169-2.01 2.453-3.253h5.334a11.387 11.387 0 0 1-2.4 5.12c-1.174 1.422-2.667 2.524-4.48 3.306-1.778.747-3.808 1.12-6.083 1.12Zm46.98 0c-3.555 0-6.595-.622-9.12-1.866-2.489-1.245-4.515-2.863-6.08-4.854a20.382 20.382 0 0 1-3.36-6.453 23.335 23.335 0 0 1-1.066-6.773v-1.174c0-2.346.355-4.693 1.066-7.04a19.75 19.75 0 0 1 3.414-6.453c1.564-1.92 3.573-3.45 6.026-4.587 2.454-1.173 5.387-1.76 8.8-1.76 3.485 0 6.489.623 9.014 1.867 2.524 1.209 4.533 2.916 6.026 5.12 1.494 2.169 2.4 4.747 2.72 7.733h-5.92c-.284-2.098-.977-3.84-2.08-5.226a10.017 10.017 0 0 0-4.16-3.094c-1.671-.71-3.537-1.066-5.6-1.066-2.204 0-4.142.39-5.813 1.173a11.369 11.369 0 0 0-4.213 3.2 14.613 14.613 0 0 0-2.507 4.853 19.688 19.688 0 0 0-.853 5.92c0 2.063.284 4 .853 5.814.569 1.813 1.422 3.43 2.56 4.853 1.173 1.387 2.613 2.489 4.32 3.307 1.707.782 3.698 1.173 5.973 1.173 3.236 0 5.956-.8 8.16-2.4 2.205-1.636 3.556-3.965 4.054-6.987h5.866a16.709 16.709 0 0 1-2.723 7.414c-1.457 2.204-3.466 3.982-6.026 5.333-2.56 1.316-5.668 1.973-9.331 1.973Zm37.968 0c-2.489 0-4.694-.41-6.614-1.226a15.15 15.15 0 0 1-4.8-3.36 14.85 14.85 0 0 1-2.986-4.747 15.945 15.945 0 0 1-.96-5.44v-.96c0-1.85.338-3.662 1.013-5.44a14.116 14.116 0 0 1 2.987-4.747 14.651 14.651 0 0 1 4.853-3.36c1.92-.853 4.089-1.28 6.507-1.28 2.453 0 4.622.427 6.506 1.28a13.961 13.961 0 0 1 4.854 3.36 14.115 14.115 0 0 1 2.986 4.747 14.514 14.514 0 0 1 1.067 5.44v.96a15.193 15.193 0 0 1-1.013 5.44 14.11 14.11 0 0 1-2.934 4.747c-1.315 1.386-2.933 2.506-4.853 3.36-1.884.817-4.089 1.226-6.613 1.226Zm0-5.013c2.062 0 3.804-.444 5.226-1.333a8.909 8.909 0 0 0 3.307-3.68 11.526 11.526 0 0 0 1.173-5.227c0-1.956-.391-3.698-1.173-5.227a8.84 8.84 0 0 0-3.36-3.68c-1.422-.89-3.147-1.333-5.173-1.333-1.956 0-3.68.444-5.174 1.333-1.457.89-2.577 2.116-3.36 3.68-.746 1.53-1.12 3.27-1.12 5.227 0 1.92.374 3.662 1.12 5.227a8.93 8.93 0 0 0 3.307 3.68c1.458.889 3.2 1.333 5.227 1.333Zm40.095 4.053V56.65h-.96v-9.813c0-1.885-.48-3.29-1.44-4.214-.96-.96-2.383-1.44-4.267-1.44-1.031 0-2.151.018-3.36.054l-3.467.106c-.979.03-1.957.082-2.933.16v-4.96a54.907 54.907 0 0 1 2.56-.16 36.848 36.848 0 0 1 2.827-.106c.96-.036 1.884-.054 2.773-.054 2.915 0 5.315.374 7.2 1.12 1.884.71 3.289 1.867 4.213 3.467.925 1.564 1.387 3.68 1.387 6.347v18.026h-4.533Zm-9.334.747c-2.133 0-3.982-.356-5.546-1.067a8.451 8.451 0 0 1-3.574-3.2c-.818-1.386-1.226-3.057-1.226-5.013 0-2.062.462-3.77 1.386-5.12.925-1.351 2.276-2.364 4.054-3.04 1.813-.711 3.946-1.067 6.4-1.067h7.52v4h-7.68c-1.956 0-3.467.48-4.534 1.44-1.066.96-1.6 2.187-1.6 3.68 0 1.494.534 2.703 1.6 3.627 1.067.924 2.578 1.387 4.534 1.387a8.559 8.559 0 0 0 3.306-.64c1.067-.427 1.938-1.138 2.614-2.134.675-1.03 1.048-2.435 1.12-4.213l1.493 2.027c-.178 2.026-.676 3.733-1.493 5.12a7.642 7.642 0 0 1-3.307 3.146c-1.387.71-3.076 1.067-5.067 1.067Zm35.259.213c-2.488 0-4.64-.426-6.453-1.28a13.414 13.414 0 0 1-4.48-3.413 15.95 15.95 0 0 1-2.667-4.8 16.946 16.946 0 0 1-.853-5.28v-.96c0-1.85.285-3.645.853-5.387a14.046 14.046 0 0 1 2.72-4.746c1.209-1.423 2.703-2.56 4.48-3.414 1.814-.853 3.912-1.28 6.294-1.28 2.418 0 4.586.462 6.506 1.387a11.997 11.997 0 0 1 4.64 3.84c1.174 1.636 1.832 3.573 1.974 5.813h-5.494a6.758 6.758 0 0 0-2.346-4.266c-1.28-1.138-3.04-1.707-5.28-1.707-1.92 0-3.52.444-4.8 1.333-1.28.89-2.24 2.116-2.88 3.68-.64 1.53-.96 3.27-.96 5.227 0 1.884.302 3.609.906 5.173.64 1.565 1.6 2.81 2.88 3.734 1.316.889 2.969 1.333 4.96 1.333 1.529 0 2.845-.267 3.947-.8a7.494 7.494 0 0 0 2.667-2.24 6.587 6.587 0 0 0 1.226-3.147h5.44c-.106 2.276-.764 4.25-1.973 5.92a11.74 11.74 0 0 1-4.693 3.894c-1.956.924-4.16 1.386-6.614 1.386Zm20.021-.96V26.25h5.707v23.093h-1.28c0-2.81.355-5.226 1.067-7.253.746-2.062 1.866-3.645 3.36-4.747 1.528-1.102 3.466-1.653 5.813-1.653h.267c3.377 0 5.937 1.138 7.68 3.413 1.742 2.276 2.613 5.53 2.613 9.76v16.32h-5.707V47.85c0-2.17-.622-3.858-1.866-5.067-1.245-1.244-2.845-1.866-4.8-1.866-2.169 0-3.912.71-5.227 2.133-1.28 1.422-1.92 3.307-1.92 5.653v16.48h-5.707Z"></path><path fill="#48DBBB" d="m0 48.436.006-.474.009-.474.012-.474.02-.477.024-.474.03-.477.03-.474.04-.474.042-.477.048-.474.053-.474.06-.474.059-.474.068-.474.07-.474.078-.472.083-.47.086-.472.089-.468.097-.47.101-.469.107-.468.11-.468.115-.466.119-.465.124-.465.13-.462.134-.462.139-.46.142-.459.148-.46.154-.459.157-.453.163-.456.166-.453.172-.45.178-.45.178-.449.186-.444.193-.447.193-.445.198-.44.208-.44.207-.438.21-.436.22-.436.219-.432.228-.43.231-.426.234-.427.237-.424.246-.42.249-.42.252-.416.258-.415.26-.415.267-.409.267-.406.275-.405.279-.403.281-.4.285-.395.293-.397.293-.39.297-.386.305-.388.305-.385.311-.38.317-.376.317-.373.323-.373.326-.368.332-.364.332-.362.338-.358.343-.356.344-.355.35-.347.352-.347.356-.34.361-.338.362-.338.367-.332.37-.326.377-.326.376-.323.382-.317.386-.314.385-.308.39-.308.395-.302.397-.3.4-.296.403-.29.409-.288.409-.28.415-.283.414-.275.415-.27.424-.266.424-.267.426-.258.433-.255.432-.252.436-.245.438-.243.439-.237.444-.238.445-.228.45-.225.45-.22.454-.215.456-.214.456-.207.46-.202.465-.198.462-.196.468-.19.468-.183.472-.18.474-.179.473-.167.474-.166.483-.166.48-.157.483-.154.483-.149.486-.142.489-.136.488-.133.49-.13.491-.122.492-.119.495-.118.498-.107.497-.104.498-.1.498-.095.504-.09.5-.082.504-.08.504-.077.503-.068.504-.065.51-.06.504-.056.51-.047.509-.045.51-.04.509-.034 2.744-.16.154 13.39h.844l.38.01.379.007.379.015.38.021.379.02.379.027.38.03.378.033.38.038.379.042.376.044.38.048.376.053.379.056.376.06.377.062.376.068.376.07.376.078.374.077.373.083.373.09.374.088.373.092.37.097.37.104.371.104.368.11.367.112.367.12.368.117.364.122.362.127.364.133.362.134.358.14.362.141.355.145.356.148.355.154.356.158.352.16.35.162.35.17.35.168.346.178.344.178.343.178.341.186.341.19.338.192.337.196.332.2.335.2.33.207.328.208.326.213.326.216.326.22.32.222.317.225.317.228.314.234.311.237.311.237.308.24.305.246.303.25.302.251.296.255.296.258.297.26.29.264.288.267.284.27.284.272.282.276.275.278.276.282.273.284.27.287.266.29.267.297.26.293.258.297.255.302.255.305.249.305.246.311.246.311.236.315.24.317.238.32.228.32.228.326.225.326.222.328.22.332.216.335.21.338.208.338.207.34.201.341.199.347.196.346.192.35.19.353.184.352.183.356.178.355.175.362.169.361.169.365.162.364.16.365.158.37.154.37.148.374.145.373.142.373.136.38.137.376.13.382.128.38.121.385.119.385.118.385.11.385.106.388.104.391.1.391.096.392.091.394.09.394.082.394.08.397.077.397.072.397.068.4.065.4.06.4.058.403.05.4.048.406.045.403.038.403.036.406.03.406.029.405.024.407.02.405.015.41.012.405.006.41.003.408v.41l-.006.408-.009.41-.015.405-.017.411-.021.406-.03.412-.03.406-.032.41-.039.408-.041.41-.047.408-.05.41-.057.405-.06.408-.062.406-.068.406-.07.406-.078.406-.08.403-.083.406-.089.403-.095.403-.094.403-.101.4-.104.4-.11.4-.112.4-.119.397-.118.397-.128.394-.13.397-.133.391-.137.394-.142.391-.145.391-.148.386-.154.39-.157.386-.163.385-.163.385-.172.38-.172.38-.178.38-.18.377-.187.374-.187.373-.192.373-.199.37-.198.371-.208.365-.207.364-.21.364-.217.362-.22.358-.221.356-.228.356-.232.355-.234.35-.237.35-.243.346-.243.344-.249.34-.254.341-.255.338-.26.335-.262.332-.266.328-.27.326-.275.326-.276.326-.281.317-.282.317-.287.314-.29.315-.294.308-.296.305-.3.305-.305.3-.305.296-.308.296-.314.293-.317.288-.317.284-.323.284-.326.28-.326.278-.332.272-.332.27-.338.266-.337.267-.344.258-.344.258-.35.255-.349.251-.356.246-.355.243-.356.24-.361.237-.365.237-.364.228-.37.226-.37.225-.374.22-.376.215-.38.21-.379.208-.385.208-.385.198-.386.2-.388.191-.394.19-.39.186-.398.181-.397.178-.4.178-.403.17-.403.165-.406.163-.406.16-.409.154-.411.148-.415.148-.412.142-.415.14-.418.133-.417.13-.421.128-.424.121-.424.118-.423.116-.427.11-.427.103-.43.101-.429.098-.43.095-.432.09-.433.082-.435.08-.433.074-.438.074-.436.065-.439.065-.438.06-.438.053-.442.047-.441.047-.442.042-.444.036-.439.032-.444.03-.445.023-.444.018-.445.015-.444.01-.445.005-.444.003-.447-.003-.445-.006-.447-.012-.445-.018-.447-.02-.445-.024-.447-.03-.444-.035-.448-.039-.444-.04-.448-.049-.444-.05-.445-.06-.444-.059-.444-.065-.445-.068-.444-.074-.439-.08-.444-.083-.439-.089-.441-.089-.439-.094-.441-.1-.436-.108-.438-.11-.436-.112-.435-.119-.436-.12-.433-.129-.432-.13-.43-.136-.43-.14-.43-.145-.426-.148-.427-.154-.423-.157-.424-.16-.42-.166-.421-.169-.418-.177-.418-.178-.415-.18-.415-.188-.411-.19-.41-.195-.408-.2-.41-.203-.402-.207-.403-.214-.4-.216-.4-.22-.397-.224-.394-.228-.394-.232-.388-.237-.389-.237-.385-.246-.385-.246-.382-.25-.38-.259-.376-.258-.373-.267-.37-.266-.37-.27-.365-.276-.365-.278-.361-.28-.356-.289-.355-.287-.356-.297-.35-.296-.346-.3-.344-.304-.34-.309-.338-.31-.338-.315-.332-.317-.326-.323-.326-.326-.326-.326-.32-.33-.314-.336-.314-.335-.31-.344-.306-.343-.305-.35-.297-.35-.296-.355-.296-.356-.288-.36-.287-.366-.281-.364-.279-.37-.276-.374-.272-.373-.267-.38-.264-.379-.26-.385-.255-.385-.255-.39-.249-.392-.243-.394-.243-.397-.237-.4-.234-.4-.228-.406-.225-.406-.222-.41-.217-.414-.213-.415-.207-.415-.208-.417-.198-.42-.199-.425-.192-.424-.187-.426-.184-.43-.178-.432-.177-.433-.172-.436-.166-.435-.163-.442-.157-.438-.154-.444-.148-.445-.146-.444-.139-.445-.136-.45-.133-.45-.125-.454-.124-.453-.119-.454-.112-.456-.107-.46-.104-.456-.1-.462-.095-.459-.09-.462-.088-.465-.077-.463-.077-.465-.071-.468-.068-.465-.06-.468-.059-.47-.053-.469-.048-.472-.044-.47-.039-.472-.032-.474-.03-.47-.024-.475-.02-.474-.015-.474-.01-.474L0 48.911v-.475ZM45.33 13.67l-.11-9.126-.1.01-.465.05-.462.053-.466.06-.459.064-.462.068-.462.072-.46.08-.459.08-.456.088-.456.09-.454.094-.456.1-.45.105-.454.11-.45.112-.448.118-.447.122-.444.127-.445.13-.444.137-.445.14-.435.141-.439.148-.438.155-.433.157-.433.16-.432.166-.427.168-.426.172-.427.178-.424.18-.42.187-.415.19-.421.196-.415.198-.412.202-.409.207-.409.207-.402.214-.403.22-.403.221-.397.225-.398.23-.39.233-.392.237-.388.24-.385.243-.385.25-.38.25-.376.258-.373.258-.373.264-.368.266-.367.267-.362.276-.361.275-.356.28-.355.283-.35.287-.35.29-.343.294-.341.296-.34.3-.336.305-.331.305-.33.311-.325.311-.323.317-.317.317-.317.323-.311.326-.309.326-.305.33-.302.334-.296.338-.297.337-.29.341-.287.344-.285.35-.278.35-.276.352-.272.355-.27.356-.267.358-.26.365-.258.364-.255.368-.249.367-.246.373-.243.374-.237.376-.237.38-.228.38-.225.381-.222.385-.22.385-.213.388-.21.391-.208.395-.201.394-.199.394-.195.4-.19.397-.187.403-.177.403-.178.403-.178.405-.166.41-.166.408-.16.41-.157.411-.151.415-.148.415-.145.414-.14.415-.133.418-.13.42-.128.42-.121.422-.119.421-.112.424-.11.423-.107.424-.1.427-.095.426-.092.427-.089.427-.083.43-.077.43-.074.43-.071.43-.065.428-.06.433-.059.43-.05.432-.05.432-.042.433-.042.43-.032.432-.03.433-.03.432-.02.433-.015.435-.015.433-.009.433-.003.432v.43l.006.432.01.433.011.43.018.432.024.43.023.43.03.43.038.43.039.43.044.425.048.43.053.426.056.424.06.427.065.423.071.424.071.421.08.424.08.417.089.421.089.418.095.415.097.418.104.414.107.415.112.412.116.412.118.41.125.408.127.406.13.406.137.402.14.403.141.4.149.398.15.397.158.397.157.394.166.39.166.39.172.39.174.385.178.385.18.383.188.38.19.38.195.374.195.374.202.37.207.37.208.368.21.364.216.365.22.361.222.356.225.355.228.356.234.35.237.35.237.343.246.344.246.34.249.338.252.335.258.335.257.326.267.33.264.324.266.32.273.32.275.315.279.314.281.308.285.308.287.305.29.3.291.296.296.296.3.293.302.288.302.284.308.285.308.278.315.276.314.272.317.267.32.267.323.266.325.258.326.255.326.252.335.252.335.243.335.242.34.237.341.237.344.232.344.228.35.225.349.222.35.216.355.214.356.21.355.208.362.201.361.202.362.195.364.19.367.19.368.183.37.18.374.18.373.17.373.17.377.165.376.16.38.16.381.154.383.148.382.15.385.141.385.136.385.137.389.13.388.124.39.125.392.118.391.113.394.112.394.107.394.104.397.098.394.094.397.09.397.088.4.083.4.08.397.074.4.071.403.066.4.065.4.06.403.052.403.05.4.048.403.042.403.038.403.036.403.03.403.03.403.02.403.017.403.015.403.012.406.006.4.003h.403l.403-.006.403-.009.4-.015.403-.017.4-.02.4-.028.4-.03.4-.03.397-.038.4-.04.397-.046.397-.05.397-.053.394-.057.394-.059.394-.065.394-.068.391-.074.391-.074.392-.08.388-.086.385-.09.388-.088.385-.095.385-.1.386-.1.379-.108.382-.11.38-.115.379-.119.376-.118.373-.128.374-.127.373-.133.37-.137.368-.139.367-.142.367-.148.362-.148.364-.154.359-.157.358-.16.356-.166.356-.166.355-.172.35-.175.35-.178.346-.178.344-.186.343-.19.341-.19.34-.195.336-.196.335-.2.331-.206.33-.207.325-.207.326-.217.326-.216.32-.22.317-.222.317-.228.311-.228.311-.23.309-.238.305-.237.305-.237.296-.246.3-.246.296-.249.293-.252.287-.254.288-.258.284-.258.282-.264.278-.266.276-.267.272-.27.27-.272.267-.276.266-.278.258-.282.258-.28.258-.286.252-.287.249-.29.245-.294.243-.296.237-.296.237-.297.235-.302.23-.302.226-.305.225-.308.22-.309.216-.314.213-.31.213-.318.208-.317.201-.317.202-.323.198-.323.193-.326.19-.326.186-.326.184-.329.18-.33.178-.333.172-.335.172-.338.163-.335.163-.34.16-.338.157-.344.151-.34.148-.344.145-.347.143-.347.136-.346.136-.35.128-.35.127-.352.124-.353.119-.352.118-.356.11-.355.11-.356.106-.355.101-.356.098-.362.095-.358.089-.359.088-.36.08-.363.08-.36.075-.365.07-.362.072-.364.062-.362.06-.364.059-.365.053-.367.05-.365.045-.364.041-.367.039-.365.035-.367.03-.365.03-.367.02-.365.021-.367.015-.367.012-.368.009-.364.005-.368v-.732l-.008-.364-.01-.364-.014-.365-.018-.364-.02-.365-.024-.364-.03-.362-.03-.364-.038-.362-.039-.36-.044-.36-.044-.36-.05-.36-.054-.358-.06-.359-.059-.355-.065-.356-.068-.355-.071-.356-.077-.355-.077-.353-.083-.35-.086-.352-.089-.35-.092-.347-.098-.346-.097-.347-.104-.347-.107-.34-.11-.344-.112-.34-.119-.342-.118-.337-.124-.338-.128-.335-.13-.335-.134-.33-.136-.33-.14-.332-.141-.326-.149-.326-.148-.326-.15-.323-.158-.32-.16-.32-.16-.317-.166-.317-.169-.314-.172-.31-.174-.309-.178-.309-.178-.308-.184-.302-.186-.302-.19-.302-.193-.297-.195-.296-.199-.296-.201-.29-.201-.288-.208-.287-.207-.285-.214-.284-.216-.282-.216-.275-.22-.276-.225-.275-.225-.27-.228-.267-.228-.266-.234-.267-.237-.26-.237-.259-.237-.254-.246-.255-.246-.252-.246-.249-.252-.246-.252-.243-.255-.237-.257-.24-.258-.237-.261-.23-.267-.229-.266-.228-.267-.226-.267-.219-.272-.22-.276-.215-.275-.21-.279-.21-.278-.208-.282-.205-.284-.2-.285-.2-.29-.195-.288-.19-.29-.19-.293-.186-.296-.184-.297-.178-.296-.178-.296-.175-.303-.17-.302-.167-.305-.166-.305-.16-.305-.16-.309-.154-.31-.15-.312-.15-.31-.148-.315-.142-.314-.14-.326-.138-.305-.128-.32-.13-.317-.128-.32-.12-.323-.12-.323-.118-.323-.113-.326-.11-.323-.106-.326-.104-.326-.1-.326-.095-.329-.095-.332-.089-.325-.089-.332-.083-.332-.08-.332-.077-.332-.074-.332-.068-.335-.068-.331-.063-.335-.059-.332-.059-.335-.05-.335-.05-.337-.048-.335-.042-.335-.04-.335-.037-.338-.032-.334-.03-.338-.03-.335-.02-.338-.02-.335-.016-.337-.012-.335-.01-.335-.007h-.74l.106 9.06h.435l.246.003.246.006.246.01.246.01.246.016.246.015.246.017.246.021.246.024.246.03.246.026.246.03.245.035.246.036.246.038.243.042.246.041.246.048.243.047.246.053.243.054.243.053.243.06.243.06.243.064.24.065.243.068.24.071.24.074.24.077.24.077.237.08.237.083.237.09.237.085.237.09.237.094.234.095.234.098.231.1.234.101.231.107.229.106.23.11.229.113.228.112.225.12.225.117.226.122.222.124.222.124.222.13.22.131.219.134.216.136.216.136.217.14.213.142.213.145.21.148.211.148.207.148.208.157.207.154.208.157.201.16.202.163.198.163.199.17.198.165.196.172.192.172.193.178.19.175.19.177.186.181.187.184.183.183.184.187.178.19.178.19.177.192.178.196.172.195.172.2.169.2.166.201.165.205.163.207.163.208.16.207.157.21.157.214.152.213.15.216.149.22.148.22.148.221.142.223.14.222.139.228.136.225.136.231.13.228.131.234.128.234.124.234.125.238.118.237.119.237.118.243.113.24.11.243.109.245.107.246.103.246.101.25.1.248.096.252.094.252.092.252.09.255.088.254.083.255.08.258.08.258.077.257.074.261.071.26.068.262.066.266.065.261.059.267.06.263.056.267.05.267.05.266.048.267.047.27.042.27.038.27.036.27.035.271.03.273.03.272.026.273.02.273.022.272.017.276.015.272.012.276.009.275.006.276.006.276v.275l-.003.276-.006.275-.006.276-.012.278-.012.276-.017.275-.018.28-.024.274-.024.28-.03.275-.029.275-.03.28-.038.274-.039.276-.041.275-.044.276-.048.275-.05.276-.054.276-.053.272-.06.276-.058.275-.069.273-.065.272-.07.273-.072.273-.077.27-.077.27-.083.271-.083.267-.089.273-.089.266-.089.267-.097.267-.098.266-.101.267-.104.264-.106.263-.11.264-.11.26-.115.262-.119.26-.118.258-.122.258-.127.258-.127.254-.13.255-.134.255-.136.252-.14.252-.142.25-.142.248-.148.25-.148.244-.152.243-.154.246-.157.24-.16.243-.163.237-.166.237-.166.237-.168.237-.172.234-.178.232-.178.23-.178.23-.18.224-.187.225-.187.225-.19.223-.189.22-.196.22-.195.215-.199.213-.201.213-.204.21-.208.21-.207.208-.208.208-.213.201-.216.202-.217.198-.219.2-.22.194-.224.193-.225.19-.229.19-.228.186-.23.186-.238.181-.234.18-.237.18-.237.177-.243.171-.243.172-.246.17-.249.165-.249.166-.252.16-.251.16-.255.157-.255.154-.258.154-.26.148-.261.148-.267.146-.264.142-.266.14-.267.135-.267.137-.272.13-.276.13-.272.125-.276.124-.278.122-.276.118-.282.12-.281.11-.282.111-.284.107-.284.106-.288.101-.287.1-.288.096-.29.094-.29.09-.297.088-.29.09-.296.08-.297.08-.296.076-.296.071-.297.071-.299.07-.299.064-.302.062-.303.06-.302.055-.302.054-.305.05-.305.048-.306.041-.305.042-.308.038-.305.036-.308.03-.308.03-.311.03-.309.02-.308.017-.31.018-.312.015-.311.008-.311.01-.311.002h-.623l-.31-.005-.315-.01-.31-.008-.315-.015-.311-.018-.314-.02-.311-.024-.311-.03-.314-.03-.311-.03-.314-.038-.312-.038-.31-.045-.312-.044-.311-.05-.311-.05-.311-.057-.311-.06-.308-.059-.309-.065-.31-.068-.309-.07-.308-.072-.305-.077-.308-.08-.305-.086-.306-.086-.305-.089-.305-.092-.302-.095-.303-.1-.302-.1-.302-.105-.296-.11-.302-.11-.297-.115-.296-.118-.296-.119-.297-.12-.296-.129-.29-.127-.294-.133-.29-.137-.29-.136-.288-.142-.287-.142-.285-.149-.284-.148-.285-.154-.281-.157-.279-.157-.278-.163-.279-.163-.275-.169-.276-.169-.272-.17-.27-.179-.27-.178-.266-.18-.267-.187-.267-.187-.26-.187-.261-.195-.26-.193-.259-.198-.254-.202-.255-.2-.252-.209-.249-.207-.249-.213-.246-.214-.243-.216-.24-.216-.24-.223-.237-.225-.237-.225-.234-.228-.231-.23-.228-.238-.228-.237-.223-.237-.222-.237-.219-.246-.22-.246-.213-.25-.213-.248-.21-.252-.208-.255-.207-.257-.202-.26-.201-.262-.199-.264-.195-.266-.193-.267-.19-.267-.186-.275-.187-.273-.18-.275-.178-.279-.178-.28-.178-.283-.169-.28-.168-.289-.166-.287-.163-.288-.16-.293-.157-.29-.154-.297-.152-.296-.148-.296-.148-.3-.142-.302-.14-.302-.136-.305-.133-.305-.13-.308-.128-.308-.124-.312-.122-.31-.118-.315-.116-.314-.112-.317-.11-.317-.104-.317-.103-.32-.101-.323-.095-.32-.095-.326-.089-.323-.089-.326-.08-.326-.08-.326-.077-.329-.074-.328-.07-.332-.069-.332-.062-.332-.06-.332-.059-.335-.053-.335-.05-.334-.045-.335-.044-.338-.042-.338-.035-.337-.033-.338-.03-.338-.03-.34-.02-.339-.02-.34-.015-.34-.015-.34-.01-.342-.005-.344v-.685l.003-.34.009-.344.012-.34.014-.344.018-.344.024-.34.024-.345.03-.343.032-.34.035-.345.039-.34.044-.344.048-.34.047-.34.054-.342.059-.34.059-.34.065-.343.065-.34.071-.338.075-.338.077-.338.083-.337.082-.338.09-.338.091-.335.095-.335.098-.332.104-.334.103-.332.11-.332.113-.332.115-.326.119-.332.124-.326.124-.326.13-.325.131-.326.136-.326.14-.32.142-.32.148-.32.148-.32.154-.317.154-.314.16-.318.163-.31.166-.312.17-.31.171-.309.178-.308.178-.305.177-.305.187-.303.19-.296.19-.302.195-.296.198-.297.202-.293.201-.29.208-.29.21-.288.213-.288.217-.284.219-.282.222-.278.225-.279.226-.275.23-.276.238-.27.234-.269.237-.267.246-.266.243-.26.249-.26.252-.26.251-.257.258-.252.258-.252.26-.249.267-.246.267-.243.267-.24.272-.237.276-.237.275-.234.282-.23.281-.229.285-.226.287-.222.288-.219.293-.216.296-.217.297-.21.296-.207.302-.208.302-.2.305-.203.309-.195.31-.196.312-.19.314-.19.317-.183.317-.184.32-.177.323-.178.326-.172.326-.169.326-.166.329-.163.331-.16.335-.157.335-.154.338-.148.338-.148.34-.145.341-.14.344-.136.346-.136.347-.13.347-.128.35-.12.352-.12.353-.118.355-.113.356-.113.355-.103.356-.104.358-.1.362-.096.361-.09.362-.09.364-.086.365-.083.364-.077.367-.074.368-.07.37-.07.368-.062.37-.059.373-.06.37-.05.374-.05.139-.015Zm.157 13.437-.11-9.158-.304.041-.326.05-.33.054-.325.056-.326.06-.326.062-.326.065-.323.07-.323.072-.32.077-.323.077-.32.083-.317.083-.308.086-.326.095-.317.092-.314.097-.311.101-.311.104-.311.107-.312.11-.308.112-.305.112-.305.12-.302.12-.302.125-.303.127-.296.13-.3.134-.295.133-.297.14-.293.142-.29.145-.29.148-.288.148-.288.151-.281.157-.285.157-.281.16-.279.163-.278.166-.273.17-.275.171-.27.175-.273.178-.266.177-.267.181-.26.184-.264.187-.258.19-.258.19-.255.194-.255.196-.248.198-.25.202-.248.204-.243.205-.243.207-.237.21-.237.214-.237.213-.234.216-.228.223-.232.222-.225.222-.222.225-.222.23-.216.227-.217.234-.213.23-.21.238-.208.237-.207.237-.202.243-.201.243-.199.243-.195.246-.193.25-.19.251-.186.251-.187.252-.18.255-.178.258-.178.258-.175.257-.172.264-.169.26-.163.267-.163.267-.16.267-.157.266-.154.27-.15.273-.149.272-.148.273-.142.275-.14.276-.136.278-.136.28-.13.278-.128.281-.127.282-.119.284-.121.284-.119.285-.113.284-.11.288-.106.287-.107.29-.1.29-.098.288-.095.294-.095.29-.088.293-.086.294-.083.293-.08.293-.077.297-.074.296-.072.296-.068.296-.065.297-.062.296-.06.296-.059.297-.05.302-.05.296-.048.3-.041.3-.042.298-.038.302-.033.296-.033.303-.03.3-.023.301-.024.296-.017.303-.018.3-.012.301-.009.296-.009.303-.003.3v.597l.006.3.01.296.008.3.015.3.018.295.02.296.024.3.024.296.03.296.032.296.036.297.038.29.041.296.042.29.047.294.05.293.054.29.056.291.06.287.059.29.065.288.065.288.071.284.075.285.074.284.08.284.08.282.082.281.09.282.088.278.092.28.095.274.098.276.1.276.104.272.107.273.11.27.11.266.115.27.118.266.119.267.118.264.125.263.127.261.13.258.13.26.137.255.136.255.14.255.142.252.145.252.148.246.148.25.149.244.157.243.157.243.157.237.16.24.166.237.162.238.17.23.168.232.175.228.172.228.178.225.178.225.18.22.184.222.184.216.19.217.186.213.193.21.192.208.196.207.195.207.202.205.198.201.205.2.204.194.208.196.207.193.207.19.214.186.213.187.216.183.217.178.219.178.22.178.221.177.223.17.225.168.225.17.228.162.231.163.231.16.231.157.235.154.237.154.237.148.237.148.237.146.24.142.243.14.243.138.243.134.245.133.246.13.246.128.25.124.251.12.249.12.252.12.252.111.255.113.254.11.255.106.258.104.255.1.258.1.26.096.258.092.26.09.261.088.261.09.264.08.264.08.26.076.267.077.264.071.266.068.264.068.267.063.266.06.267.058.267.06.266.05.267.05.267.047.27.045.269.041.267.042.272.035.267.036.27.03.27.03.269.026.27.023.27.021.266.018.272.015.267.012.273.01.266.004.27.007h.536l.27-.004.267-.005.266-.01.27-.01.267-.016.266-.018.267-.017.267-.024.266-.024.264-.03.267-.03.26-.029.264-.038.264-.036.26-.04.261-.046.26-.044.262-.048.26-.05.258-.053.258-.06.258-.056.258-.06.254-.064.255-.066.252-.068.255-.07.252-.075.248-.074.252-.077.25-.083.248-.083.246-.086.246-.089.243-.089.243-.088.243-.098.243-.095.237-.1.24-.102.237-.103.237-.107.237-.11.234-.11.231-.115.231-.112.231-.119.226-.118.228-.125.225-.12.225-.129.222-.127.22-.13.222-.134.216-.133.216-.136.217-.14.213-.142.21-.142.21-.145.208-.148.208-.149.207-.148.201-.15.202-.155.199-.157.198-.157.196-.16.195-.163.193-.163.19-.166.189-.166.187-.169.186-.169.184-.172.178-.174.184-.178.177-.175.175-.178.172-.18.172-.18.169-.185.169-.186.166-.187.162-.187.163-.19.157-.19.157-.192.157-.192.155-.196.148-.195.148-.199.148-.199.148-.2.14-.2.142-.204.136-.204.136-.205.134-.207.133-.208.127-.207.128-.207.124-.214.125-.21.118-.213.119-.214.118-.216.113-.213.11-.217.109-.219.107-.216.103-.222.101-.22.1-.222.099-.22.094-.22.092-.227.09-.222.088-.225.089-.225.08-.225.08-.229.08-.225.077-.228.071-.228.071-.228.071-.23.066-.229.065-.232.059-.23.06-.232.059-.23.053-.232.053-.23.05-.235.048-.23.044-.235.042-.23.041-.238.036-.232.035-.234.033-.234.03-.234.03-.234.026-.234.02-.23.024-.238.018-.234.015-.234.015-.234.012-.23.009-.238.005-.232.004-.234v-.699l-.006-.23-.01-.235-.008-.23-.012-.232-.015-.234-.018-.232-.02-.23-.021-.232-.024-.228-.027-.23-.03-.229-.029-.228-.032-.229-.036-.225-.038-.228-.042-.225-.041-.225-.045-.225-.047-.226-.048-.222-.05-.222-.053-.222-.06-.222-.056-.22-.06-.219-.061-.22-.066-.218-.065-.217-.068-.216-.071-.213-.074-.217-.074-.213-.077-.213-.08-.21-.08-.21-.083-.209-.09-.21-.085-.207-.089-.208-.089-.207-.095-.202-.094-.204-.098-.202-.1-.198-.102-.2-.103-.2-.104-.196-.107-.195-.11-.196-.109-.192-.113-.193-.115-.19-.119-.19-.115-.189-.119-.186-.121-.184-.125-.184-.124-.184-.127-.177-.128-.18-.13-.179-.134-.178-.133-.177-.136-.172-.137-.172-.136-.169-.142-.169-.142-.169-.142-.166-.146-.163-.145-.163-.148-.16-.148-.16-.151-.157-.151-.157-.154-.154-.157-.154-.155-.148-.157-.15-.16-.149-.16-.145-.163-.146-.163-.142-.163-.14-.165-.138-.166-.137-.17-.136-.168-.133-.172-.13-.172-.13-.172-.128-.175-.125-.174-.124-.178-.122-.175-.118-.178-.119-.178-.118-.18-.116-.181-.112-.184-.11-.18-.11-.187-.106-.184-.104-.183-.104-.187-.1-.19-.1-.186-.096-.19-.098-.19-.089-.19-.095-.189-.089-.196-.088-.19-.083-.192-.083-.195-.08-.196-.08-.192-.077-.196-.074-.199-.075-.195-.07-.199-.069-.195-.065-.199-.065-.198-.062-.199-.06-.201-.059-.199-.06-.198-.052-.202-.054-.201-.05-.202-.048-.201-.047-.202-.044-.201-.042-.202-.04-.201-.037-.205-.036-.201-.035-.204-.03-.202-.03-.204-.029-.202-.027-.201-.023-.205-.02-.201-.019-.205-.018-.201-.017-.205-.012-.201-.012-.205-.009-.201-.009-.202-.003-.204-.003h-.338l.104 8.948h.18l.113.003.119.006.118.003.116.01.115.005.119.01.116.011.118.012.116.011.118.012.119.015.115.018.119.018.115.017.119.021.118.02.116.025.118.023.116.027.118.024.116.03.118.03.116.03.119.03.115.031.116.035.118.036.113.035.118.04.113.038.118.041.113.041.119.042.112.044.113.045.115.047.113.048.113.05.115.05.113.05.112.054.113.053.11.06.112.053.11.06.11.06.112.058.11.06.106.064.11.065.107.066.11.065.106.068.106.068.104.071.107.071.104.074.103.072.104.077.104.074.1.08.104.077.1.08.102.08.097.083.101.083.098.083.098.088.094.083.095.09.095.088.095.09.095.09.092.093.091.095.09.091.091.098.089.095.089.098.089.098.086.1.086.101.083.1.086.104.083.104.08.104.082.107.08.106.078.107.08.11.077.11.074.11.077.111.07.113.075.113.071.115.071.116.068.115.068.12.069.117.065.12.065.117.065.12.062.12.06.125.062.121.059.125.06.124.056.125.053.127.056.127.05.128.054.127.05.128.048.13.05.13.044.13.048.134.041.13.045.134.041.133.039.136.038.134.039.136.035.136.036.137.03.136.032.14.03.136.03.14.03.138.026.14.024.14.023.141.02.14.022.141.02.142.015.143.018.142.015.145.012.142.011.142.012.146.01.145.005.142.006.148.006.143v.583l-.003.148-.006.145-.006.146-.006.148-.012.145-.008.148-.015.145-.012.148-.018.15-.015.144-.02.148-.018.148-.024.145-.024.148-.023.146-.03.148-.027.148-.03.145-.029.148-.032.145-.036.15-.036.141-.035.148-.042.145-.038.148-.042.142-.044.15-.044.141-.048.145-.05.145-.048.145-.053.143-.053.142-.054.145-.059.142-.056.142-.06.143-.059.142-.062.14-.065.142-.065.14-.069.138-.068.14-.068.138-.07.14-.075.136-.074.136-.077.137-.077.136-.08.136-.08.134-.083.136-.083.13-.086.134-.089.133-.086.13-.089.13-.089.131-.094.127-.095.13-.095.128-.098.125-.098.127-.097.124-.101.125-.104.121-.104.125-.106.118-.107.122-.107.118-.11.12-.112.117-.11.12-.115.114-.112.113-.119.116-.119.112-.118.11-.119.113-.118.11-.125.106-.124.106-.124.107-.128.107-.127.103-.13.101-.131.101-.13.1-.134.101-.133.098-.133.095-.137.095-.136.095-.14.091-.139.092-.142.09-.139.088-.145.09-.142.088-.146.083-.148.083-.145.083-.148.08-.148.08-.148.077-.154.077-.149.074-.157.074-.154.071-.154.071-.154.068-.157.07-.157.067-.16.062-.157.065-.16.06-.163.06-.16.058-.163.06-.163.052-.166.057-.163.05-.166.05-.166.05-.166.048-.168.045-.17.044-.168.042-.169.041-.169.04-.172.037-.172.036-.172.032-.171.033-.172.03-.175.03-.172.03-.178.022-.172.024-.177.021-.175.02-.178.02-.175.016-.177.015-.178.012-.178.012-.178.01-.178.007-.177.007-.178.002-.178.003h-.358l-.181-.003-.18-.005-.179-.006-.18-.01-.181-.008-.18-.015-.182-.012-.18-.018-.178-.017-.184-.018-.178-.02-.183-.025-.178-.026-.18-.027-.182-.03-.18-.03-.178-.029-.184-.035-.178-.039-.177-.035-.184-.042-.178-.04-.178-.046-.177-.044-.181-.048-.178-.05-.178-.05-.178-.054-.177-.053-.178-.06-.175-.056-.178-.059-.174-.062-.175-.065-.175-.066-.172-.068-.178-.068-.172-.07-.171-.075-.172-.074-.172-.077-.169-.08-.172-.08-.169-.083-.169-.083-.169-.086-.165-.089-.17-.089-.165-.089-.166-.094-.163-.095-.166-.095-.16-.098-.163-.1-.16-.1-.163-.105-.157-.107-.16-.106-.157-.107-.157-.11-.157-.112-.154-.116-.154-.115-.151-.116-.154-.118-.149-.119-.148-.124-.148-.122-.148-.127-.148-.128-.145-.127-.143-.13-.145-.13-.14-.134-.141-.136-.14-.134-.136-.14-.136-.138-.136-.14-.134-.145-.133-.142-.13-.148-.13-.145-.128-.148-.128-.149-.127-.15-.125-.155-.121-.154-.122-.154-.118-.157-.118-.157-.119-.16-.119-.163-.112-.16-.113-.163-.11-.166-.109-.166-.107-.166-.106-.169-.104-.172-.104-.168-.1-.172-.101-.175-.098-.175-.095-.178-.095-.175-.092-.177-.088-.178-.092-.18-.09-.18-.085-.185-.083-.184-.083-.184-.08-.186-.077-.187-.077-.187-.074-.186-.074-.19-.071-.19-.068-.192-.069-.193-.065-.192-.065-.193-.06-.196-.059-.195-.059-.196-.056-.195-.053-.199-.05-.198-.051-.199-.048-.2-.047-.2-.044-.2-.042-.203-.038-.204-.039-.202-.035-.204-.036-.204-.03-.205-.03-.204-.029-.208-.024-.204-.023-.208-.021-.207-.02-.207-.016-.208-.014-.207-.015-.208-.01-.207-.008-.21-.009-.21-.003-.208v-.637l.003-.208.009-.213.009-.21.009-.21.015-.214.014-.208.015-.213.021-.21.02-.214.024-.207.027-.213.03-.21.03-.214.029-.207.035-.214.039-.21.039-.21.041-.21.044-.208.045-.214.047-.207.05-.21.054-.208.053-.207.06-.21.059-.208.06-.207.058-.208.069-.207.068-.208.068-.204.071-.207.074-.202.077-.207.077-.202.083-.2.08-.206.089-.2.083-.2.089-.2.092-.2.095-.198.094-.199.098-.198.098-.196.104-.195.103-.196.104-.196.11-.192.11-.193.112-.19.112-.189.119-.19.118-.19.119-.186.121-.186.125-.184.127-.187.128-.18.13-.184.133-.178.134-.18.136-.179.136-.177.143-.178.139-.175.145-.172.148-.172.145-.172.148-.168.152-.17.154-.165.157-.166.157-.166.157-.16.16-.163.163-.16.163-.157.166-.157.169-.154.168-.154.172-.15.172-.152.175-.149.178-.148.178-.148.177-.142.178-.142.184-.14.186-.139.184-.14.187-.133.19-.133.189-.133.193-.13.192-.128.196-.127.195-.125.199-.12.198-.123.202-.118.201-.119.205-.115.204-.113.208-.11.207-.11.207-.109.208-.104.213-.103.213-.1.214-.1.213-.097.216-.097.217-.092.219-.09.22-.088.221-.089.22-.083.222-.083.225-.08.225-.08.226-.074.225-.074.228-.07.228-.072.231-.065.228-.066.231-.062.235-.059.23-.06.235-.058.234-.05.237-.05.234-.05.237-.049.118-.02v.002Zm2.904 17.21-2.696.65-.157-13.53-.128.03-.192.043-.19.048-.19.05-.19.05-.189.054-.186.056-.187.056-.187.06-.186.06-.184.058-.184.065-.184.065-.18.07-.181.07-.18.071-.178.07-.181.075-.178.077-.178.077-.175.08-.171.08-.175.083-.172.083-.172.09-.169.085-.172.09-.166.088-.166.094-.165.092-.166.098-.163.095-.163.1-.16.098-.16.104-.16.1-.157.107-.157.104-.154.11-.155.106-.15.11-.152.113-.148.112-.148.116-.148.115-.148.12-.143.117-.142.12-.142.117-.14.125-.139.121-.139.125-.133.127-.136.128-.134.127-.13.13-.13.13-.128.131-.127.133-.125.134-.124.136-.125.136-.118.137-.122.14-.118.14-.116.137-.115.143-.113.142-.11.142-.112.145-.107.146-.107.145-.106.148-.104.148-.1.148-.101.148-.098.148-.098.155-.095.148-.094.154-.09.154-.091.154-.09.154-.088.157-.083.157-.083.157-.083.157-.08.157-.077.16-.077.157-.077.16-.071.16-.071.163-.071.16-.069.163-.065.163-.065.163-.062.163-.06.163-.059.163-.059.166-.06.166-.05.163-.053.166-.05.166-.05.166-.045.165-.047.17-.042.165-.044.17-.039.165-.038.17-.036.165-.035.17-.033.168-.03.166-.03.168-.029.17-.027.168-.023.17-.024.165-.018.17-.02.168-.018.17-.015.168-.015.17-.012.164-.009.17-.009.168-.006.17-.006.165-.002.17v.5l.003.165.005.166.006.17.01.165.008.163.012.166.015.166.015.163.017.166.018.163.02.163.022.163.023.163.027.163.027.16.03.163.029.16.03.16.032.16.036.16.035.157.039.157.038.157.042.157.041.157.045.154.044.157.048.154.05.151.05.154.05.151.054.152.053.15.06.15.056.15.06.15.058.146.06.148.065.146.065.145.065.142.068.145.069.14.07.142.072.142.07.14.075.138.077.137.077.136.077.136.08.136.08.134.083.133.083.133.083.13.086.131.089.128.086.127.089.127.088.125.092.124.095.125.092.121.095.122.098.118.094.122.098.118.1.12.102.111.1.116.101.113.104.112.104.11.106.11.107.11.107.106.106.106.11.104.11.104.112.1.11.104.112.098.116.098.112.098.116.094.119.095.115.095.119.09.118.091.119.09.118.088.119.088.121.083.122.086.124.08.122.083.124.08.124.077.125.077.127.077.128.075.124.07.128.075.127.068.13.068.128.068.13.068.13.063.13.065.131.06.13.06.134.057.13.06.134.06.133.052.133.054.134.05.133.05.136.05.134.048.136.045.133.044.137.044.136.042.133.041.136.04.137.037.136.036.136.036.137.03.136.032.14.03.136.03.136.03.136.025.14.024.136.024.136.02.14.021.136.021.136.018.139.015.136.014.137.015.136.012.14.01.136.008.136.01.136.005.136.006.137.002.136.004h.406l.136-.006.134-.003.136-.006.133-.006.133-.01.134-.01.133-.01.133-.015.134-.01.133-.019.13-.015.134-.018.13-.018.13-.02.131-.024.13-.02.13-.028.128-.023.13-.03.128-.026.127-.03.128-.03.124-.03.128-.035.124-.033.124-.035.125-.036.124-.038.122-.039.124-.04.119-.043.124-.04.119-.046.118-.044.122-.044.118-.048.119-.05.118-.048.116-.05.115-.05.116-.054.113-.053.115-.056.113-.054.112-.059.11-.056.11-.06.11-.059.109-.059.106-.062.11-.063.104-.065.106-.065.104-.065.104-.068.104-.065.103-.069.101-.07.1-.072.099-.068.097-.074.098-.07.098-.075.095-.074.095-.077.094-.077.092-.077.092-.077.089-.077.092-.08.089-.08.089-.083.088-.08.083-.083.086-.083.083-.083.083-.086.083-.083.08-.089.08-.086.08-.089.077-.086.077-.089.074-.089.074-.088.075-.09.074-.088.07-.095.072-.089.068-.095.068-.092.068-.094.065-.095.066-.095.062-.095.062-.095.062-.095.06-.097.059-.095.06-.098.058-.098.054-.097.056-.098.053-.1.054-.099.05-.1.05-.098.05-.1.048-.1.048-.103.044-.1.044-.1.045-.102.041-.103.042-.1.041-.105.039-.1.038-.104.036-.1.035-.105.036-.103.033-.104.032-.1.03-.105.03-.103.03-.104.029-.104.026-.103.027-.104.024-.107.024-.103.02-.1.021-.108.02-.104.019-.103.017-.104.018-.104.015-.103.015-.104.011-.104.012-.103.012-.104.01-.104.008-.104.009-.103.006-.1.006-.105.003-.103.006-.1v-.517l-.003-.1-.003-.1-.006-.102-.006-.1-.009-.102-.006-.097-.009-.1-.012-.1-.012-.1-.011-.1-.012-.098-.015-.098-.015-.095-.018-.1-.014-.095-.018-.098-.021-.095-.02-.098-.021-.094-.021-.095-.024-.095-.024-.092-.023-.095-.027-.09-.027-.096-.026-.09-.03-.094-.03-.089-.03-.092-.029-.089-.03-.088-.035-.09-.033-.088-.035-.09-.036-.088-.035-.089-.036-.086-.038-.086-.039-.083-.038-.086-.042-.083-.041-.083-.042-.083-.041-.083-.045-.08-.041-.083-.045-.08-.047-.08-.045-.077-.047-.08-.047-.077-.048-.077-.05-.077-.05-.074-.05-.077-.051-.074-.05-.07-.054-.075-.053-.07-.054-.072-.053-.07-.053-.073-.06-.068-.053-.068-.056-.068-.06-.068-.056-.065-.059-.065-.056-.066-.06-.065-.059-.062-.06-.062-.061-.063-.06-.059-.062-.059-.062-.06-.065-.058-.06-.06-.065-.059-.065-.053-.065-.057-.065-.053-.065-.053-.066-.054-.065-.053-.065-.05-.068-.05-.068-.05-.065-.048-.069-.048-.068-.047-.068-.048-.068-.044-.071-.048-.068-.04-.071-.045-.069-.042-.07-.042-.072-.04-.07-.039-.069-.039-.071-.038-.071-.039-.071-.036-.074-.035-.072-.036-.07-.032-.072-.033-.074-.032-.07-.03-.075-.033-.071-.03-.074-.029-.071-.03-.074-.023-.074-.03-.072-.024-.074-.023-.074-.024-.074-.024-.07-.023-.075-.02-.074-.02-.074-.023-.071-.017-.074-.018-.074-.018-.074-.018-.072-.015-.074-.014-.074-.015-.07-.012-.075-.012-.074-.012-.071-.012-.074-.01-.071-.01-.074-.009-.071-.006-.074-.006-.072-.009-.07-.006-.075-.003-.07-.006h-.072l-.071-.003-.071-.003h-.353l-.071.006-.068.003-.071.003-.068.006-.069.006-.068.006-.068.006-.068.01-.068.008-.068.01-.065.007-.069.012-.065.01-.065.011-.065.012-.068.015-.063.011-.065.015-.065.02Z"></path></g></g></g></svg> 