<?xml version="1.0" encoding="UTF-8"?> <svg xmlns="http://www.w3.org/2000/svg" width="200" height="150" fill="none" viewBox="0 0 200 150"><path fill="#003341" fill-opacity=".75" fill-rule="evenodd" d="M165 126.317V24H35v102.317h130Zm-5-16.7V40.383c-6.329 0-11.458-5.097-11.458-11.383H51.458c0 6.286-5.129 11.383-11.458 11.383v69.234c6.33 0 11.459 5.097 11.459 11.383h97.083c0-6.286 5.129-11.383 11.458-11.383Z" clip-rule="evenodd"></path><path fill="#003341" fill-opacity=".75" d="M55.56 75h-6.154v-.554h1.64V63.25h-1.64v-.554h6.153v.554h-1.64v5.107h5.208V63.25h-1.64v-.554h6.152v.554H62v11.197h1.086c.287.028.471.212.554.554h-6.153v-.554h1.64v-5.475h-5.208v5.475h1.087c.287.028.471.212.553.554L55.56 75Z"></path><path fill="#003341" fill-opacity=".75" d="M76.69 75h-5.496v-.554h1.456l-1.538-3.937h-4.08l-1.478 3.937h1.149c.082 0 .157.007.226.02.177.028.266.206.266.534h-3.773v-.554h1.312l4.49-11.75h1.519l4.84 11.75h.615c.082 0 .157.007.226.02.177.028.266.206.266.534Zm-5.824-5.106-1.825-4.717-1.764 4.717h3.589Z"></path><path fill="#003341" fill-opacity=".75" d="M82.15 63.249h-1.168v5.722h1.087c1.463-.014 2.208-.964 2.235-2.85-.013-1.888-.731-2.845-2.153-2.872ZM83.034 75H76.47v-.554h1.64V63.25h-1.64v-.554h6.85c.902 0 1.68.157 2.338.472 1.148.56 1.723 1.483 1.723 2.769 0 .52-.09.99-.267 1.415-.602 1.49-2.085 2.235-4.45 2.235H80.98v4.86h1.497c.287.028.472.212.554.554V75Z"></path><path fill="#003341" fill-opacity=".75" d="M93.046 63.249H91.88v5.722h1.087c1.462-.014 2.208-.964 2.235-2.85-.014-1.888-.732-2.845-2.153-2.872h-.002ZM93.93 75h-6.562v-.554h1.64V63.25h-1.64v-.554h6.85c.902 0 1.681.157 2.337.472 1.15.56 1.723 1.483 1.723 2.769 0 .52-.089.99-.267 1.415-.6 1.49-2.085 2.235-4.45 2.235h-1.68v4.86h1.496c.287.028.471.211.553.553Z"></path><path fill="#003341" fill-opacity=".75" d="M104.419 75h-6.153v-.554h1.64V63.25h-1.64v-.554h6.153v.554h-1.641v11.197h1.087c.287.028.472.211.554.553Zm9.152-11.75v-.555h4.142v.554h-1.64v11.648l-1.169.206-7.896-9.209v8.552h1.19c.287.028.471.212.553.554h-4.245v-.554h1.641V63.25h-1.641v-.554h3.466l7.239 8.49V63.25h-1.64Z"></path><path fill="#003341" fill-opacity=".75" d="M127.928 66.633h-.595l-.451-1.415a4.432 4.432 0 0 0-.143-.37c-.424-1.066-1.197-1.599-2.318-1.599h-2.317v5.107h3.937v.615h-3.937v5.475h2.317c.26 0 .506-.027.738-.082.78-.205 1.347-.834 1.703-1.886l.471-1.415h.595L127.846 75h-10.254v-.554h1.641V63.25h-1.641v-.554h10.254l.082 3.937Zm10.895 4.942c0 .903-.321 1.668-.963 2.297-.93.89-2.263 1.333-3.999 1.333-1.491 0-2.762-.349-3.815-1.046 0 .233-.014.417-.041.554-.068.219-.287.328-.656.328v-4.348h.8c.054.725.205 1.368.451 1.928.588 1.326 1.606 1.99 3.055 1.99.383 0 .732-.055 1.046-.165.875-.328 1.313-.984 1.313-1.968a2.034 2.034 0 0 0-.185-.84c-.287-.576-1.018-1.171-2.194-1.785-1.313-.67-2.051-1.06-2.215-1.17-1.299-.806-1.948-1.777-1.948-2.912 0-.765.266-1.428.8-1.989.834-.86 2.078-1.292 3.732-1.292 1.258 0 2.454.267 3.589.8 0-.123.007-.232.02-.328.069-.26.294-.39.677-.39v3.712h-.8c-.013-.738-.191-1.374-.533-1.907-.56-.848-1.401-1.271-2.522-1.271-.287 0-.561.04-.821.122-.779.26-1.169.794-1.169 1.6 0 .315.069.615.206.903.287.587 1.004 1.182 2.153 1.784l2.153 1.148c1.244.807 1.866 1.777 1.866 2.912Zm10.814 0c0 .903-.322 1.668-.964 2.297-.93.89-2.263 1.333-3.999 1.333-1.49 0-2.762-.349-3.815-1.046 0 .233-.013.417-.041.554-.068.219-.287.328-.656.328v-4.348h.8c.055.725.205 1.368.451 1.928.588 1.326 1.607 1.99 3.056 1.99.383 0 .731-.055 1.046-.165.875-.328 1.312-.984 1.312-1.968a2.034 2.034 0 0 0-.184-.84c-.287-.576-1.019-1.171-2.195-1.785-1.312-.67-2.051-1.06-2.215-1.17-1.298-.806-1.948-1.777-1.948-2.912 0-.765.267-1.428.8-1.989.834-.86 2.078-1.292 3.732-1.292 1.258 0 2.455.267 3.589.8 0-.123.007-.232.021-.328.068-.26.294-.39.677-.39v3.712h-.8c-.014-.738-.192-1.374-.533-1.907-.561-.848-1.402-1.271-2.523-1.271-.287 0-.56.04-.82.122-.78.26-1.169.794-1.169 1.6 0 .315.068.615.205.903.287.587 1.005 1.182 2.153 1.784l2.154 1.148c1.244.807 1.866 1.777 1.866 2.912ZM57.059 52.043c0 .516-.184.953-.551 1.313-.531.507-1.293.761-2.285.761-.852 0-1.578-.199-2.18-.597 0 .132-.008.238-.023.316-.04.125-.165.187-.376.187V51.54h.458c.03.414.117.781.257 1.102.336.757.918 1.136 1.746 1.136.22 0 .418-.03.598-.093.5-.188.75-.563.75-1.125 0-.166-.036-.33-.105-.48-.164-.329-.582-.669-1.254-1.02-.75-.383-1.172-.606-1.266-.668-.742-.461-1.113-1.016-1.113-1.664 0-.438.152-.817.457-1.137.476-.492 1.187-.738 2.133-.738.718 0 1.402.152 2.05.457 0-.07.004-.133.012-.188.04-.148.168-.223.387-.223v2.121h-.457c-.008-.42-.11-.785-.305-1.09-.32-.484-.8-.726-1.441-.726-.164 0-.32.024-.469.07-.445.149-.668.454-.668.914 0 .18.04.352.117.516.164.336.575.676 1.23 1.02.72.383 1.13.601 1.231.656.711.46 1.067 1.015 1.067 1.663Zm7.227 1.5a4.998 4.998 0 0 1-2.32.574c-1.133 0-2.047-.363-2.743-1.09-.648-.687-.972-1.535-.972-2.543 0-.85.246-1.605.738-2.261.695-.914 1.7-1.37 3.012-1.37.82 0 1.57.182 2.25.55a1.224 1.224 0 0 1 .011-.305c.04-.125.16-.188.364-.188l.035 2.31h-.41a4.935 4.935 0 0 0-.434-1.115c-.352-.601-.895-.902-1.629-.902-1.39.008-2.09 1.082-2.098 3.223 0 .656.047 1.207.141 1.652.25 1.125.871 1.688 1.863 1.688.25 0 .477-.028.68-.082.734-.203 1.246-.848 1.535-1.934h.387v2.309a.785.785 0 0 1-.211-.024c-.14-.031-.206-.195-.199-.492ZM69.04 54h-3.515v-.316h.937v-6.399h-.937v-.316h3.515v.316h-.937v6.399h.62c.165.015.27.12.317.316Zm6.735-4.78h-.34l-.257-.81a2.327 2.327 0 0 0-.082-.21c-.243-.61-.684-.915-1.325-.915h-1.324v2.918h2.25v.352h-2.25v3.129h1.324c.149 0 .29-.016.422-.047.446-.117.77-.477.973-1.078l.27-.809h.34L75.727 54H69.87v-.316h.938v-6.399h-.938v-.316h5.86l.045 2.25Zm6.243-1.935v-.316h2.367v.316h-.937v6.656l-.668.118-4.512-5.262v4.887h.68c.164.015.27.12.316.316h-2.426v-.316h.938v-6.399h-.938v-.316h1.98l4.138 4.851v-4.535h-.938Zm9.172 6.258a4.998 4.998 0 0 1-2.32.574c-1.133 0-2.047-.363-2.742-1.09-.648-.687-.972-1.535-.972-2.543 0-.85.246-1.605.738-2.261.695-.914 1.699-1.37 3.011-1.37.82 0 1.57.182 2.25.55a1.22 1.22 0 0 1 .012-.305c.04-.125.16-.188.364-.188l.035 2.31h-.41a4.94 4.94 0 0 0-.434-1.115c-.352-.601-.895-.902-1.629-.902-1.39.008-2.09 1.082-2.098 3.223 0 .656.047 1.207.14 1.652.25 1.125.872 1.688 1.864 1.688.25 0 .477-.028.68-.082.734-.203 1.246-.848 1.535-1.934h.387v2.309a.785.785 0 0 1-.211-.024c-.14-.031-.207-.195-.2-.492Zm7.146-4.324h-.34l-.258-.809a2.02 2.02 0 0 0-.082-.21c-.242-.61-.684-.915-1.324-.915h-1.324v2.918h2.25v.352h-2.25v3.129h1.324c.148 0 .289-.016.422-.047.445-.117.77-.477.972-1.078l.27-.809h.34L98.289 54h-5.86v-.316h.938v-6.399h-.938v-.316h5.86l.047 2.25Zm7.692-2.367c.883 0 1.653.238 2.309.714.914.672 1.371 1.653 1.371 2.942 0 1.062-.363 1.937-1.09 2.625-.711.656-1.586.984-2.625.984-.914 0-1.711-.26-2.39-.785-.883-.688-1.325-1.645-1.325-2.871 0-1.07.372-1.945 1.114-2.625.718-.656 1.597-.984 2.636-.984Zm0 6.925c.36 0 .661-.078.903-.234.625-.398.937-1.43.937-3.094 0-.703-.058-1.293-.175-1.77-.25-.992-.817-1.488-1.7-1.488-.265 0-.504.047-.715.141-.773.328-1.16 1.387-1.16 3.176 0 .937.098 1.664.293 2.18.282.726.821 1.09 1.617 1.09Zm8.646.223h-3.961v-.316h.937v-6.399h-.937v-.316h5.859l.047 2.308h-.34l-.258-.867c0-.008-.004-.015-.011-.023-.227-.735-.692-1.102-1.395-1.102h-1.324v2.918h2.25v.352h-2.25v3.129h1.383V54Zm32.906 39.4c-1.295.088-3.143 1.368-4.078 1.788-.727.327-1.355.61-1.902.61-.565 0-.65-.405-.533-1.298.028-.2.293-1.98-1.067-1.902-.628.037-1.608.62-4.238 3.15l1.038-2.593c.76-1.897-1.33-3.787-3.243-2.57l-1.372.923a.403.403 0 0 0-.123.552l.43.675a.4.4 0 0 0 .553.123l1.45-.973c.46-.292 1.017.18.817.678l-2.455 6.14c-.17.422.068 1.097.743 1.097.207 0 .412-.08.565-.235 1.055-1.055 3.867-3.767 5.28-4.895-.055.713-.053 1.473.515 2.095.382.42.932.633 1.637.633.89 0 1.7-.365 2.558-.75.825-.37 2.475-1.565 3.46-1.645a.402.402 0 0 0 .38-.395v-.803a.41.41 0 0 0-.029-.159.404.404 0 0 0-.386-.246ZM69 97.5c0 .703-1.116 1.268-1.261 1.926-.151.679.61 1.683.322 2.295-.294.623-1.538.637-1.955 1.172-.42.537-.158 1.782-.682 2.211-.523.427-1.65-.109-2.258.191-.598.296-.889 1.535-1.552 1.69-.642.149-1.427-.835-2.114-.835-.687 0-1.472.984-2.114.835-.663-.155-.954-1.394-1.552-1.69-.608-.3-1.735.236-2.258-.191-.525-.429-.263-1.674-.682-2.211-.417-.535-1.661-.549-1.955-1.172-.289-.612.473-1.616.322-2.295C51.115 98.768 50 98.203 50 97.5c0-.703 1.115-1.268 1.261-1.926.151-.679-.61-1.683-.322-2.295.294-.623 1.538-.637 1.955-1.172.42-.538.157-1.782.683-2.21.522-.429 1.649.11 2.257-.192.598-.296.889-1.535 1.552-1.69.642-.149 1.427.835 2.114.835.687 0 1.472-.984 2.114-.835.663.155.954 1.394 1.552 1.69.609.3 1.735-.236 2.258.19.524.43.263 1.675.682 2.212.417.535 1.661.55 1.955 1.172.289.612-.473 1.616-.322 2.295.145.658 1.261 1.223 1.261 1.926Zm7-4.885c0-.338.277-.615.615-.615h31.77c.339 0 .615.277.615.615v.41a.615.615 0 0 1-.615.615h-31.77a.617.617 0 0 1-.615-.615v-.41Zm0 5c0-.338.277-.615.615-.615h31.77c.339 0 .615.277.615.615v.41a.615.615 0 0 1-.615.615h-31.77a.617.617 0 0 1-.615-.615v-.41Zm0 5c0-.338.218-.615.484-.615h25.032c.266 0 .484.277.484.615v.41c0 .338-.218.615-.484.615H76.484c-.266 0-.484-.277-.484-.615v-.41Z"></path></svg> 