<?xml version="1.0" encoding="UTF-8"?> <svg xmlns="http://www.w3.org/2000/svg" width="200" height="150" fill="none" viewBox="0 0 200 150"><path fill="#003341" fill-opacity=".75" d="M167.973 115.676c-.876-1.457-1.87-3.107-2.426-5.201-.481-1.81-.089-2.456.859-4.02.981-1.617 2.324-3.831 2.324-7.425 0-3.738-1.069-5.76-1.928-7.386-.698-1.32-1.202-2.274-1.202-4.46 0-2.185.504-3.14 1.202-4.46.859-1.625 1.928-3.648 1.928-7.385 0-3.737-1.069-5.76-1.928-7.386-.698-1.32-1.202-2.275-1.202-4.46 0-2.184.504-3.139 1.202-4.46.859-1.624 1.928-3.647 1.928-7.385 0-3.736-1.069-5.76-1.928-7.385-.698-1.32-1.202-2.273-1.202-4.457 0-1.605.948-3.151 1.951-4.788 1.519-2.478 4.346-7.089-.728-10.834-1.991-1.47-3.933-2.183-5.938-2.183-2.547 0-4.556 1.135-6.499 2.233-1.967 1.112-3.825 2.162-6.397 2.162-3.423 0-5.028-.626-6.885-1.35-2.138-.835-4.561-1.78-9.162-1.78-4.6 0-7.022.945-9.16 1.78-1.857.724-3.461 1.35-6.883 1.35s-5.026-.626-6.884-1.35c-2.137-.835-4.559-1.78-9.16-1.78-4.6 0-7.022.945-9.16 1.78-1.857.724-3.461 1.35-6.883 1.35s-5.026-.626-6.884-1.35c-2.138-.835-4.56-1.78-9.16-1.78-4.6 0-7.02.945-9.158 1.78-1.858.724-3.461 1.35-6.883 1.35-2.572 0-4.43-1.05-6.397-2.162C43.388 23.136 41.38 22 38.832 22c-2.005 0-3.947.714-5.937 2.184-5.074 3.747-2.247 8.358-.728 10.835 1.004 1.638 1.952 3.184 1.952 4.79 0 2.185-.504 3.14-1.203 4.46-.859 1.626-1.928 3.648-1.928 7.387 0 3.737 1.07 5.76 1.928 7.385.699 1.321 1.203 2.276 1.203 4.46 0 2.185-.504 3.14-1.202 4.46-.86 1.626-1.929 3.648-1.929 7.386s1.07 5.76 1.928 7.385c.699 1.32 1.203 2.275 1.203 4.46s-.504 3.14-1.203 4.46c-.858 1.625-1.928 3.647-1.928 7.385 0 3.737 1.07 5.76 1.929 7.385.698 1.32 1.202 2.274 1.202 4.458 0 1.605-.948 3.151-1.952 4.788-1.519 2.478-4.346 7.089.729 10.834 1.99 1.469 3.933 2.183 5.938 2.183 2.546 0 4.555-1.136 6.498-2.234 1.967-1.112 3.825-2.162 6.398-2.162 3.422 0 5.027.626 6.885 1.351 2.138.834 4.56 1.779 9.16 1.779 4.601 0 7.023-.945 9.16-1.779 1.858-.726 3.463-1.351 6.884-1.351 3.422 0 5.027.626 6.884 1.351 2.138.834 4.56 1.779 9.16 1.779 4.601 0 7.023-.945 9.16-1.779 1.858-.726 3.463-1.351 6.884-1.351 3.422 0 5.026.626 6.884 1.351 2.137.834 4.56 1.779 9.16 1.779 4.599 0 7.021-.945 9.158-1.779 1.857-.726 3.462-1.351 6.883-1.351 2.572 0 4.429 1.05 6.396 2.162 1.942 1.098 3.952 2.234 6.499 2.234 2.005 0 3.947-.714 5.937-2.183 5.307-3.92 2.705-8.244 1.149-10.826Zm-8.293-2.889a3.539 3.539 0 0 1-1.034 2.488 3.539 3.539 0 0 1-2.488 1.034H43.56a3.534 3.534 0 0 1-3.522-3.522V37.898a3.532 3.532 0 0 1 3.522-3.522h112.598a3.534 3.534 0 0 1 3.522 3.522v74.889Z"></path><path fill="#003341" fill-opacity=".75" d="M109.999 96.833c0 .703-1.116 1.268-1.261 1.926-.151.68.611 1.683.322 2.295-.294.623-1.538.637-1.955 1.172-.42.537-.158 1.782-.683 2.212-.522.426-1.649-.11-2.257.19-.598.296-.889 1.535-1.552 1.69-.642.149-1.427-.835-2.114-.835-.687 0-1.472.984-2.114.835-.663-.155-.953-1.394-1.552-1.69-.608-.3-1.735.236-2.258-.19-.525-.43-.263-1.675-.682-2.212-.417-.535-1.661-.549-1.955-1.172-.289-.612.473-1.616.322-2.295-.146-.659-1.261-1.223-1.261-1.926 0-.703 1.115-1.268 1.261-1.926.151-.679-.61-1.682-.322-2.295.294-.623 1.538-.637 1.955-1.172.42-.538.157-1.782.682-2.21.523-.429 1.65.11 2.258-.192.599-.296.889-1.535 1.552-1.69.642-.149 1.427.835 2.114.835.687 0 1.472-.984 2.114-.835.663.155.954 1.394 1.552 1.69.609.3 1.735-.236 2.257.19.526.43.264 1.675.683 2.212.417.535 1.661.55 1.955 1.172.289.613-.473 1.616-.322 2.295.145.658 1.261 1.223 1.261 1.926Zm31.579-.633c-1.295.088-3.142 1.368-4.077 1.788-.728.327-1.355.61-1.903.61-.565 0-.65-.405-.532-1.298.027-.2.292-1.98-1.068-1.902-.627.037-1.607.62-4.237 3.15l1.037-2.593c.76-1.897-1.33-3.787-3.242-2.57l-1.373.923a.402.402 0 0 0-.122.552l.43.675a.397.397 0 0 0 .552.123l1.45-.973c.46-.292 1.018.18.818.678l-2.455 6.14c-.17.422.067 1.097.742 1.097.208 0 .413-.08.565-.235 1.055-1.055 3.868-3.767 5.28-4.895-.055.713-.052 1.473.515 2.095.383.42.933.633 1.638.633.89 0 1.7-.365 2.557-.75.825-.37 2.475-1.565 3.46-1.645a.398.398 0 0 0 .38-.395v-.803a.401.401 0 0 0-.255-.38.402.402 0 0 0-.16-.025Zm-90.579-4.585c0-.338.193-.615.428-.615h22.144c.235 0 .428.277.428.615v.41c0 .338-.193.615-.428.615H51.427c-.235 0-.428-.277-.428-.615v-.41Zm0 5c0-.338.193-.615.428-.615h22.144c.235 0 .428.277.428.615v.41c0 .338-.193.615-.428.615H51.427c-.235 0-.428-.277-.428-.615v-.41Zm0 5c0-.338.152-.615.338-.615h17.446c.185 0 .337.277.337.615v.41c0 .338-.152.615-.337.615H51.337c-.186 0-.338-.277-.338-.615v-.41Zm98.628-26.445c.158 0 .356-.024.594-.072v.907a3.756 3.756 0 0 1-.836.1c-.586 0-1.034-.156-1.342-.468-.304-.312-.456-.808-.456-1.49v-3.262h-.968v-.869h.968l.187-2.156h.88v2.156h1.496v.87h-1.496v3.13c0 .29.033.517.099.686.069.17.174.29.313.363.143.07.33.105.561.105Zm-5.234.94c-.509 0-.984-.077-1.424-.23v-.887c.473.158.94.237 1.402.237.385 0 .675-.075.869-.226.198-.154.297-.374.297-.66 0-.238-.057-.42-.17-.55-.114-.128-.292-.225-.534-.29l-.654-.17c-.47-.126-.812-.322-1.029-.59-.216-.268-.324-.62-.324-1.06 0-.35.084-.656.253-.92.168-.264.418-.47.748-.616.33-.15.728-.225 1.193-.225.407 0 .809.045 1.205.137v.885a4.36 4.36 0 0 0-1.155-.142c-.426 0-.741.08-.946.242a.77.77 0 0 0-.308.632c0 .216.055.39.165.517.113.125.289.22.528.286l.654.165c.484.128.833.326 1.045.594.213.268.319.625.319 1.072 0 .37-.086.692-.258.963a1.61 1.61 0 0 1-.737.621c-.319.144-.699.215-1.139.215Zm-3.48-.11v-5.984h1.073V76h-1.073Zm.534-7.156c-.235 0-.413-.056-.534-.17-.121-.117-.181-.279-.181-.484 0-.209.06-.372.181-.49.121-.117.299-.175.534-.175.235 0 .412.058.533.175.121.118.182.281.182.49 0 .205-.061.367-.182.484-.121.114-.298.17-.533.17Zm-5.838 1.172h.908l.077.627h.06a1.509 1.509 0 0 1 1.331-.72c.382 0 .725.1 1.029.296.304.2.548.52.731.963.184.444.275 1.017.275 1.721 0 1.082-.232 1.887-.698 2.415-.462.524-1.162.787-2.101.787-.136 0-.317-.01-.545-.034v2.35h-1.067v-8.405Zm1.689 5.23c.363 0 .664-.07.902-.214.238-.147.418-.385.539-.715.125-.33.187-.768.187-1.314 0-.565-.053-1.005-.16-1.32-.102-.316-.243-.534-.423-.655-.18-.12-.4-.18-.66-.18a1.2 1.2 0 0 0-.578.147c-.183.1-.326.24-.429.423v3.773c.205.036.413.055.622.055Zm-4.972-5.324c.491 0 .892.07 1.204.21.312.135.545.362.699.681.157.316.236.741.236 1.276V76h-.88l-.082-.649h-.061a1.48 1.48 0 0 1-.599.567 1.871 1.871 0 0 1-.836.181 1.81 1.81 0 0 1-.853-.193 1.391 1.391 0 0 1-.572-.572 1.826 1.826 0 0 1-.203-.885c0-.55.165-.975.495-1.276.33-.304.845-.486 1.545-.544l1.001-.105v-.484c0-.315-.046-.56-.137-.737a.752.752 0 0 0-.407-.38c-.184-.076-.428-.115-.732-.115-.205 0-.431.02-.676.06-.246.04-.486.098-.721.171v-.886a4.51 4.51 0 0 1 .759-.17c.286-.04.559-.06.82-.06Zm.011 5.347c.201 0 .396-.048.583-.144.19-.099.357-.26.5-.484v-1.419l-.902.09c-.367.035-.638.138-.814.306-.176.17-.264.406-.264.71 0 .315.077.552.231.71.158.154.38.231.666.231Zm-4.951-5.253h.886l.088.82h.06c.161-.297.369-.52.622-.666.256-.147.542-.22.858-.22.121 0 .24.011.357.033v1.007a2.28 2.28 0 0 0-.423-.033c-.279 0-.545.071-.798.214a1.452 1.452 0 0 0-.583.578V76h-1.067v-5.984Zm-.848 3.344h-3.207c.011.47.073.84.187 1.111.117.268.293.46.528.578.235.113.543.17.924.17.374 0 .803-.07 1.287-.209v.885c-.48.144-.95.215-1.408.215-.601 0-1.093-.103-1.474-.308-.378-.209-.662-.54-.852-.996-.187-.458-.281-1.06-.281-1.809 0-1.04.194-1.813.583-2.316.389-.505.933-.758 1.634-.758.678 0 1.193.25 1.545.753.356.5.534 1.28.534 2.343v.341Zm-2.085-2.678a.925.925 0 0 0-.819.434c-.191.29-.292.8-.303 1.53h2.184c-.008-.503-.054-.897-.138-1.183-.084-.29-.203-.492-.357-.605a.893.893 0 0 0-.567-.176Zm-7.31-3.57h1.067v3.56h.061c.374-.5.88-.75 1.518-.75.48 0 .863.156 1.149.468.286.308.429.812.429 1.513V76H120.3v-4.037c0-.385-.077-.658-.231-.82-.154-.165-.374-.247-.66-.247-.22 0-.442.055-.665.165-.22.11-.398.28-.534.511V76h-1.067v-8.888Zm-1.236 8.058c.157 0 .355-.024.594-.072v.907c-.29.067-.569.1-.836.1-.587 0-1.034-.156-1.342-.468-.305-.312-.457-.808-.457-1.49v-3.262h-.968v-.869h.968l.187-2.156h.88v2.156h1.496v.87h-1.496v3.13c0 .29.033.517.099.686.07.17.174.29.314.363.143.07.33.105.561.105Zm-5.452.94c-.737 0-1.305-.248-1.705-.742-.396-.5-.594-1.28-.594-2.343 0-1.07.196-1.856.589-2.355.396-.498.966-.748 1.71-.748.737 0 1.304.252 1.7.754.399.502.599 1.283.599 2.343 0 2.06-.766 3.091-2.299 3.091Zm0-.84c.264 0 .482-.066.655-.194.176-.132.309-.36.401-.688.095-.326.143-.775.143-1.347 0-.587-.048-1.047-.143-1.38-.095-.334-.229-.567-.401-.699-.173-.132-.391-.198-.655-.198-.26 0-.478.066-.654.198-.173.132-.307.363-.402.693-.095.326-.143.775-.143 1.347 0 .587.046 1.046.138 1.376.095.33.229.56.401.692.172.133.392.2.66.2Zm-7.398-5.254h.897l.082.654h.061a1.99 1.99 0 0 1 .687-.555c.264-.128.554-.192.869-.192.502 0 .898.153 1.188.462.293.307.44.806.44 1.495V76h-1.067v-4.048c0-.385-.077-.658-.231-.82-.154-.16-.374-.242-.66-.242-.22 0-.442.057-.665.171-.22.11-.398.28-.534.511V76h-1.067v-5.984Zm-5.325 0h.907l.077.627h.06a1.504 1.504 0 0 1 1.332-.72c.381 0 .724.1 1.028.296.304.2.548.52.732.963.183.444.275 1.017.275 1.721 0 1.082-.233 1.887-.699 2.415-.462.524-1.162.787-2.1.787-.137 0-.318-.01-.545-.034v2.35h-1.067v-8.405Zm1.688 5.23c.363 0 .664-.07.902-.214.238-.147.418-.385.539-.715.125-.33.187-.768.187-1.314 0-.565-.053-1.005-.159-1.32-.103-.316-.244-.534-.424-.655-.18-.12-.4-.18-.66-.18-.202 0-.394.048-.577.147a1.06 1.06 0 0 0-.43.423v3.773c.205.036.414.055.622.055Zm-3.331-5.23h1.084l-2.607 8.404H93.51l.76-2.42h-.353l-1.853-5.984h1.116l1.43 5.021 1.48-5.02h-.001ZM85.869 76v-8.14h1.078v3.47h3.399v-3.47h1.078V76h-1.078v-3.674h-3.4V76h-1.077Zm-3.457.11-1.199-1.012c-.256.33-.583.58-.979.748-.396.17-.85.253-1.364.253-.557 0-1.037-.095-1.44-.286a2.104 2.104 0 0 1-.925-.809c-.209-.352-.313-.762-.313-1.232 0-.473.106-.89.319-1.254.216-.362.511-.648.885-.858a2.688 2.688 0 0 1-.38-.742 2.78 2.78 0 0 1-.11-.797c0-.76.234-1.343.7-1.75.465-.41 1.153-.615 2.062-.615.377 0 .759.042 1.144.126v.935a4.452 4.452 0 0 0-1.073-.126c-.594 0-1.032.12-1.314.357-.279.238-.418.592-.418 1.061 0 .22.03.422.088.606.062.183.167.37.313.56.147.191.352.406.616.644l1.876 1.584c.022-.172.033-.358.033-.555a5.41 5.41 0 0 0-.05-.72 5 5 0 0 0-.137-.727h.918c.114.466.17.944.17 1.435 0 .451-.052.858-.159 1.221l1.342 1.133-.605.82Zm-3.437-.858c.722 0 1.246-.238 1.573-.715l-2.123-1.793a9.59 9.59 0 0 1-.528-.49c-.41.35-.616.814-.616 1.397 0 .33.066.617.198.86.135.237.33.42.583.55.257.127.56.191.913.191Zm-10.318-8.14h1.067v3.56h.06c.375-.5.88-.75 1.519-.75.48 0 .863.156 1.15.468.285.308.428.812.428 1.513V76h-1.067v-4.037c0-.385-.077-.658-.23-.82-.155-.165-.375-.247-.66-.247-.22 0-.443.055-.666.165-.22.11-.398.28-.534.511V76h-1.067v-8.888Zm-1.961 8.998c-.796 0-1.397-.246-1.804-.737-.404-.49-.605-1.278-.605-2.36 0-1.089.222-1.875.665-2.359.448-.488 1.106-.73 1.975-.73.366 0 .706.037 1.017.114v.902a3.733 3.733 0 0 0-.841-.099c-.4 0-.723.066-.968.198-.246.132-.43.354-.55.665-.121.312-.182.74-.182 1.282 0 .557.055.997.165 1.32.114.32.279.546.495.682.22.136.504.204.853.204.304 0 .647-.068 1.028-.204v.907a3.74 3.74 0 0 1-1.248.215Zm-5.424-6.188c.492 0 .893.07 1.205.21.312.135.544.362.698.681.158.316.237.741.237 1.276V76h-.88l-.083-.649h-.06a1.48 1.48 0 0 1-.6.567 1.87 1.87 0 0 1-.836.181c-.322 0-.606-.064-.852-.193a1.388 1.388 0 0 1-.572-.572 1.827 1.827 0 0 1-.204-.885c0-.55.165-.975.495-1.276.33-.304.846-.486 1.546-.544l1-.105v-.484c0-.315-.045-.56-.137-.737a.75.75 0 0 0-.407-.38c-.183-.076-.427-.115-.731-.115-.205 0-.43.02-.677.06-.244.04-.484.097-.72.171v-.886c.224-.073.477-.13.759-.17.286-.04.56-.06.82-.06h-.001Zm.011 5.347c.202 0 .396-.048.583-.144.191-.099.358-.26.5-.484v-1.419l-.901.09c-.367.035-.638.138-.814.306-.176.17-.264.406-.264.71 0 .315.077.552.23.71.159.154.38.231.666.231Zm-4.864.841c-.738 0-1.306-.248-1.706-.742-.396-.5-.594-1.28-.594-2.343 0-1.07.196-1.856.589-2.355.396-.498.966-.748 1.71-.748.737 0 1.304.252 1.7.754.4.502.6 1.283.6 2.343 0 2.06-.766 3.091-2.299 3.091Zm0-.84c.263 0 .481-.066.654-.194.176-.132.31-.36.401-.688.095-.326.143-.775.143-1.347 0-.587-.048-1.047-.143-1.38-.095-.334-.23-.567-.401-.699-.173-.132-.39-.198-.655-.198-.26 0-.478.066-.654.198-.173.132-.307.363-.402.693-.095.326-.143.775-.143 1.347 0 .587.046 1.046.138 1.376.095.33.229.56.401.692.172.133.393.2.661.2Zm-4.081.835c-.719 0-1.324-.136-1.815-.407-.492-.272-.87-.714-1.133-1.326-.26-.616-.39-1.424-.39-2.425 0-1.46.29-2.523.874-3.19.586-.668 1.439-1.002 2.557-1.002.499 0 .992.067 1.48.2v.94a4.698 4.698 0 0 0-.71-.149 4.998 4.998 0 0 0-.72-.05c-.532 0-.97.1-1.315.303-.34.201-.6.538-.775 1.011-.176.474-.264 1.111-.264 1.914 0 .822.088 1.47.264 1.942.176.473.432.808.77 1.007.34.194.773.291 1.298.291.223 0 .453-.022.687-.066.235-.044.49-.112.765-.204v.941a4.55 4.55 0 0 1-.748.193 4.433 4.433 0 0 1-.825.076v.001Zm76.727-18c-.289 0-.593-.007-.91-.02a25.02 25.02 0 0 1-.966-.05 16.035 16.035 0 0 1-.966-.098V47.871c.322-.07.665-.13 1.029-.182.374-.052.75-.091 1.127-.119.383-.028.758-.042 1.127-.042 1.881 0 3.299.43 4.256 1.288.961.854 1.442 2.19 1.442 4.004 0 1.237-.226 2.245-.679 3.024-.453.775-1.134 1.346-2.044 1.715-.91.364-2.049.546-3.416.546Zm.588-1.848c.719 0 1.316-.112 1.792-.336a2.191 2.191 0 0 0 1.071-1.099c.238-.509.357-1.178.357-2.009 0-.826-.121-1.49-.364-1.995a2.227 2.227 0 0 0-1.071-1.106c-.476-.233-1.066-.35-1.771-.35a6.87 6.87 0 0 0-1.169.105v6.741c.191.02.38.033.567.042.191.005.387.007.588.007ZM117.446 58V47.64h7.273v1.82h-5.026v6.72h5.096V58h-7.343Zm1.351-4.389v-1.82h5.208v1.82h-5.208Zm-5.494 4.39V47.64h2.275V58h-2.275Zm-8.49 0V47.64h7.252v1.854h-4.977V58h-2.275Zm1.449-4.13v-1.856h5.089v1.855h-5.089ZM100.67 58V47.64h2.275V58h-2.275Zm-6.567 0v-8.47h-3.269v-1.89h8.813v1.89h-3.262V58h-2.282Zm-11.329 0V47.87c.312-.07.646-.13 1-.182.365-.057.732-.1 1.1-.126.378-.033.758-.049 1.14-.049 1.49 0 2.61.27 3.36.812.752.537 1.128 1.377 1.128 2.52 0 .737-.178 1.356-.532 1.855-.355.495-.861.868-1.52 1.12-.653.252-1.434.378-2.344.378-.206 0-.395-.002-.567-.007l-.532-.028V58h-2.233Zm6.097 0-3.332-4.789h2.436L91.355 58h-2.484Zm-2.723-5.496c.751 0 1.309-.13 1.673-.392.364-.26.546-.684.546-1.267 0-.383-.077-.695-.231-.938a1.346 1.346 0 0 0-.7-.546c-.313-.117-.71-.175-1.19-.175a6.103 6.103 0 0 0-1.239.112v3.15c.135.01.261.021.378.035.121.01.242.016.364.021h.399ZM73.996 58V47.64h7.273v1.82h-5.026v6.72h5.096V58h-7.343Zm1.351-4.389v-1.82h5.208v1.82h-5.208Zm-4.951 4.522c-.859 0-1.622-.1-2.289-.3a4.416 4.416 0 0 1-1.7-.946c-.463-.43-.813-.978-1.05-1.645-.239-.667-.358-1.468-.358-2.4 0-1.186.215-2.173.644-2.962a4.075 4.075 0 0 1 1.876-1.778c.821-.397 1.818-.595 2.99-.595.396 0 .778.021 1.147.063.369.037.728.098 1.078.182v1.876a8.807 8.807 0 0 0-2.044-.245c-.747 0-1.365.117-1.855.35-.485.23-.85.595-1.092 1.1-.243.503-.364 1.163-.364 1.98 0 .845.12 1.52.357 2.023.243.5.602.861 1.078 1.085.48.224 1.08.336 1.8.336a6.68 6.68 0 0 0 1.056-.084 9.984 9.984 0 0 0 1.064-.245v1.87a8.228 8.228 0 0 1-2.338.335Z"></path></svg> 