<?xml version="1.0" encoding="UTF-8"?> <svg xmlns="http://www.w3.org/2000/svg" width="200" height="150" fill="none" viewBox="0 0 200 150"><path fill="#003341" fill-opacity=".75" d="M100 10c-35.843 0-65 29.16-65 65 0 35.839 29.157 65 65 65s65-29.161 65-65c0-35.84-29.157-65-65-65Zm0 127.428c-34.426 0-62.432-27.998-62.432-62.428 0-34.426 28.006-62.428 62.432-62.428 34.43 0 62.433 28.002 62.433 62.428 0 34.43-28.003 62.428-62.433 62.428Z"></path><path fill="#003341" fill-opacity=".75" fill-rule="evenodd" d="m97.103 51.26.535.85a.653.653 0 0 0 .9.204l1.779-1.12a.653.653 0 0 0 .204-.9l-.535-.85a5.88 5.88 0 0 0 .705-.996l.979.222c.351.08.701-.14.781-.492l.465-2.05a.662.662 0 0 0-.084-.493.66.66 0 0 0-.408-.288l-.978-.222a5.922 5.922 0 0 0-.206-1.204l.849-.535a.653.653 0 0 0 .204-.9l-1.12-1.778a.655.655 0 0 0-.901-.205l-.848.535a5.918 5.918 0 0 0-.997-.705l.222-.98a.653.653 0 0 0-.492-.78l-2.05-.465a.651.651 0 0 0-.781.492l-.222.978a5.913 5.913 0 0 0-1.204.206l-.535-.85a.652.652 0 0 0-.9-.203l-1.78 1.12a.652.652 0 0 0-.203.9l.535.85c-.271.31-.507.643-.705.996l-.98-.222a.653.653 0 0 0-.78.492l-.465 2.05c-.08.352.14.7.49.78l.98.223a5.8 5.8 0 0 0 .206 1.204l-.85.535a.653.653 0 0 0-.203.9l1.12 1.779a.653.653 0 0 0 .9.204l.85-.535c.31.27.643.507.996.705l-.222.98c-.08.35.14.7.492.78l2.05.465c.352.08.7-.14.78-.491l.223-.98c.407-.027.81-.096 1.204-.205ZM95.5 47.629a2.105 2.105 0 1 0 0-4.21 2.105 2.105 0 0 0 0 4.21Zm10.181 8.335.545-.146a.368.368 0 0 0 .259-.45l-.306-1.144a.37.37 0 0 0-.45-.26l-.546.147a3.363 3.363 0 0 0-.418-.545l.282-.49a.369.369 0 0 0-.135-.5l-1.025-.592a.369.369 0 0 0-.502.134l-.281.49a3.345 3.345 0 0 0-.682-.09l-.147-.545a.36.36 0 0 0-.306-.27.366.366 0 0 0-.143.01l-1.144.307a.372.372 0 0 0-.223.171.364.364 0 0 0-.036.279l.146.545c-.196.12-.378.261-.545.419l-.49-.282a.365.365 0 0 0-.501.134l-.591 1.025a.368.368 0 0 0 .135.502l.489.282a3.357 3.357 0 0 0-.09.682l-.545.146a.366.366 0 0 0-.26.45l.307 1.143a.37.37 0 0 0 .45.26l.545-.147c.12.194.26.377.419.546l-.282.489a.368.368 0 0 0 .135.502l1.025.59c.175.102.4.042.501-.134l.282-.49c.226.055.454.085.682.09l.146.546a.365.365 0 0 0 .45.26l1.143-.307a.365.365 0 0 0 .269-.307.363.363 0 0 0-.009-.143l-.147-.545c.194-.12.377-.26.546-.42l.489.283c.175.102.4.042.501-.134l.592-1.025a.372.372 0 0 0-.135-.502l-.489-.282c.053-.226.084-.454.09-.682Zm-3.353 1.092a1.187 1.187 0 0 0 1.185-1.185 1.186 1.186 0 1 0-1.185 1.185Zm11.214-9.377.723-.194a.485.485 0 0 0 .344-.596l-.407-1.514a.493.493 0 0 0-.227-.296.482.482 0 0 0-.369-.048l-.722.194a4.464 4.464 0 0 0-.555-.723l.374-.648a.487.487 0 0 0-.179-.665l-1.358-.783a.489.489 0 0 0-.665.178l-.374.648a4.4 4.4 0 0 0-.903-.118l-.193-.723a.494.494 0 0 0-.227-.296.49.49 0 0 0-.37-.048l-1.514.406a.49.49 0 0 0-.357.407.486.486 0 0 0 .013.19l.194.723c-.26.16-.502.345-.723.554l-.648-.374a.488.488 0 0 0-.665.179l-.783 1.358a.485.485 0 0 0 .178.665l.648.374c-.071.296-.11.599-.118.903l-.723.194a.49.49 0 0 0-.357.406.485.485 0 0 0 .013.19l.406 1.515c.07.26.337.413.596.343l.723-.194c.158.258.344.5.555.723l-.374.648a.487.487 0 0 0 .178.665l1.359.784c.233.134.53.054.665-.18l.374-.647c.298.07.601.11.902.118l.194.723c.07.26.337.414.597.344l1.514-.406a.493.493 0 0 0 .295-.227.48.48 0 0 0 .049-.37l-.194-.722c.257-.158.499-.344.723-.555l.648.374c.233.134.53.055.665-.178l.783-1.36a.486.486 0 0 0-.178-.664l-.648-.373c.07-.297.11-.6.118-.904Zm-2.872-.124a1.572 1.572 0 0 1-2.68 1.11 1.568 1.568 0 0 1 0-2.22 1.568 1.568 0 0 1 2.22 0c.294.294.46.694.46 1.11Z" clip-rule="evenodd"></path><path fill="#003341" fill-opacity=".75" d="M103.346 116.976v.612c-.016.352-.092.632-.228.84-.117.19-.288.341-.492.432-.192.08-.404.12-.636.12-.384 0-.68-.092-.888-.276a.936.936 0 0 1-.3-.72c0-.296.1-.536.3-.72.208-.192.504-.288.888-.288h1.356Zm-7.652 1.56c-.28.176-.624.264-1.032.264-.408 0-.752-.088-1.032-.264a1.845 1.845 0 0 1-.648-.732 2.49 2.49 0 0 1-.216-1.056c0-.4.076-.752.228-1.056.152-.312.368-.556.648-.732.306-.189.66-.285 1.02-.276.392 0 .728.092 1.008.276.288.176.504.42.648.732.152.304.228.656.228 1.056 0 .392-.072.744-.216 1.056-.14.299-.36.552-.636.732Zm30.635-13.724c.328 0 .628-.072.9-.216.272-.152.488-.368.648-.648.168-.288.252-.624.252-1.008v-.48c0-.384-.084-.704-.252-.96a1.639 1.639 0 0 0-.66-.6 1.88 1.88 0 0 0-.888-.216c-.36 0-.68.088-.96.264a1.78 1.78 0 0 0-.648.72 2.477 2.477 0 0 0-.228 1.092c0 .416.08.78.24 1.092.16.304.376.54.648.708.28.168.596.252.948.252Zm-7.053-.276c-.28.176-.624.264-1.032.264-.408 0-.752-.088-1.032-.264a1.847 1.847 0 0 1-.648-.732 2.492 2.492 0 0 1-.216-1.056c0-.4.076-.752.228-1.056.152-.312.368-.556.648-.732a1.854 1.854 0 0 1 1.02-.276c.392 0 .728.092 1.008.276.288.176.504.42.648.732.152.304.228.656.228 1.056 0 .392-.072.744-.216 1.056-.139.299-.36.552-.636.732Zm-10.567.156h1.956c.4 0 .704-.108.912-.324.208-.224.312-.528.312-.912s-.104-.68-.312-.888c-.208-.216-.512-.324-.912-.324h-1.956v2.448Zm1.632-3.768h-1.632v-2.376h1.632c.408 0 .708.108.9.324.192.216.288.504.288.864s-.096.648-.288.864c-.192.216-.492.324-.9.324Zm-10.112 3.664-2.288-2.44c-.126-.137-.25-.275-.37-.416-.261.17-.482.394-.65.656a2.02 2.02 0 0 0-.324 1.116c0 .376.088.692.264.948.184.256.424.452.72.588.304.128.636.192.996.192.56 0 1.044-.156 1.452-.468.07-.054.136-.113.2-.176Zm-12.08.224c.328 0 .628-.072.9-.216.272-.152.488-.368.648-.648.168-.288.252-.624.252-1.008v-.48c0-.384-.084-.704-.252-.96a1.64 1.64 0 0 0-.66-.6 1.88 1.88 0 0 0-.888-.216c-.36 0-.68.088-.96.264a1.775 1.775 0 0 0-.648.72 2.466 2.466 0 0 0-.228 1.092c0 .416.08.78.24 1.092.16.304.376.54.648.708.28.168.596.252.948.252Z"></path><path fill="#003341" fill-opacity=".75" fill-rule="evenodd" d="M42.5 75c0-31.752 25.748-57.497 57.5-57.497 31.761 0 57.501 25.745 57.501 57.497s-25.74 57.492-57.501 57.492c-31.752 0-57.5-25.74-57.5-57.492Zm57.149-45c8.659 0 15.29 5.405 17.843 8.6 3.584 4.484 5.762 12.704 2.739 19.103-.655 1.387-1.613 2.795-2.627 4.285l-.002.002-.001.002c-2.325 3.417-4.959 7.288-3.691 11.255a.805.805 0 0 1-.211.826l-14.36 13.705a.803.803 0 0 1-1.332-.378c-.885-3.393-3.333-9.058-6.135-9.818-.235-.063-.538-.094-.926-.094-.693 0-1.557.1-2.472.205h-.013c-1.07.125-2.176.253-3.212.253-2.332 0-3.586-.722-3.833-2.21a73.453 73.453 0 0 1-.37-2.6v-.003c-.467-3.608-.95-7.338-3.73-9.233-1.627-1.108-.296-3.456.992-5.725.857-1.511 1.744-3.073 1.608-4.086l-.14-1.03-.012-.085c-.82-5.958-1.466-10.662 3.484-15.754a.53.53 0 0 1 .015-.015l.01-.01C88.35 32.42 93.859 30 99.649 30Zm14.408 90v-8.76h1.668v3.351c.167-.411.403-.728.708-.951.336-.24.76-.36 1.272-.36h.072c.744 0 1.308.256 1.692.768.384.512.576 1.256.576 2.232V120h-1.668v-3.876c0-.416-.12-.744-.36-.984-.232-.24-.54-.36-.924-.36-.408 0-.74.136-.996.408-.248.264-.372.612-.372 1.044V120h-1.668Zm-5.908-.06c.416.192.908.288 1.476.288.576 0 1.088-.112 1.536-.336.456-.224.82-.532 1.092-.924.28-.4.436-.864.468-1.392h-1.62c-.032.232-.112.44-.24.624-.12.184-.284.328-.492.432a1.646 1.646 0 0 1-.744.156c-.384 0-.7-.088-.948-.264-.24-.176-.42-.42-.54-.732a3.066 3.066 0 0 1-.168-1.044c0-.4.06-.752.18-1.056.12-.312.3-.556.54-.732.248-.176.556-.264.924-.264.424 0 .756.112.996.336.248.224.392.504.432.84h1.62a2.638 2.638 0 0 0-.456-1.368 2.637 2.637 0 0 0-1.068-.912c-.448-.224-.956-.336-1.524-.336-.544 0-1.024.096-1.44.288a2.968 2.968 0 0 0-1.032.756c-.28.312-.492.672-.636 1.08-.136.4-.204.82-.204 1.26v.228c0 .416.068.824.204 1.224.136.4.34.76.612 1.08.28.32.624.576 1.032.768Zm-4.523.06v-1.255c-.05.162-.118.317-.204.463a1.798 1.798 0 0 1-.744.72c-.312.16-.696.24-1.152.24-.472 0-.888-.084-1.248-.252a1.967 1.967 0 0 1-.828-.72c-.192-.312-.288-.688-.288-1.128 0-.48.116-.872.348-1.176.24-.304.572-.532.996-.684.432-.152.936-.228 1.512-.228h1.332v-.06c0-.376-.092-.656-.276-.84-.184-.184-.468-.276-.852-.276-.524.003-1.048.019-1.572.048-.28.008-.532.02-.756.036v-1.416c.184-.016.392-.032.624-.048.232-.016.468-.024.708-.024.248-.008.48-.012.696-.012.672 0 1.228.088 1.668.264.448.176.784.452 1.008.828.232.376.348.868.348 1.476V120h-1.32Zm-10.484-.048c.44.184.948.276 1.524.276.568 0 1.072-.092 1.512-.276.44-.184.812-.432 1.116-.744.304-.32.532-.68.684-1.08.16-.4.24-.816.24-1.248v-.252c0-.448-.08-.872-.24-1.272a3.132 3.132 0 0 0-.708-1.08 3.114 3.114 0 0 0-1.116-.744 3.829 3.829 0 0 0-1.488-.276c-.552 0-1.048.092-1.488.276-.44.176-.816.424-1.128.744-.304.312-.54.672-.708 1.08-.16.4-.24.824-.24 1.272v.252c0 .432.076.848.228 1.248.16.4.392.76.696 1.08.304.312.676.56 1.116.744Zm-7.114.276c-.792 0-1.472-.14-2.04-.42a4.053 4.053 0 0 1-1.392-1.092 4.624 4.624 0 0 1-.78-1.464 5.022 5.022 0 0 1-.252-1.524v-.264c0-.544.084-1.08.252-1.608a4.411 4.411 0 0 1 .804-1.44c.36-.432.816-.776 1.368-1.032.56-.264 1.22-.396 1.98-.396.792 0 1.48.144 2.064.432.592.28 1.064.68 1.416 1.2.352.512.564 1.112.636 1.8h-1.716c-.05-.369-.2-.717-.432-1.008a1.945 1.945 0 0 0-.828-.624 2.874 2.874 0 0 0-1.14-.216c-.432 0-.816.076-1.152.228a2.186 2.186 0 0 0-.84.624c-.23.285-.406.61-.516.96-.116.397-.173.81-.168 1.224 0 .432.056.832.168 1.2.12.368.296.692.528.972.232.272.516.484.852.636.344.152.74.228 1.188.228.656 0 1.208-.16 1.656-.48.456-.328.732-.784.828-1.368h1.716a3.99 3.99 0 0 1-.636 1.716 3.711 3.711 0 0 1-1.416 1.248c-.6.312-1.316.468-2.148.468Zm45.431-13.088v1.428h1.068c.536 0 .984-.064 1.344-.192.368-.128.668-.34.9-.636.232-.288.412-.676.54-1.164l1.932-7.092h-1.596l-1.315 5.052h-.252l-1.589-5.052h-1.68l2.112 6.372h1.066l-.094.36a1.35 1.35 0 0 1-.24.54.834.834 0 0 1-.396.288c-.184.07-.38.102-.576.096h-1.224Zm-5.498-.924a3.1 3.1 0 0 1-1.26-.252 2.949 2.949 0 0 1-.996-.708 3.241 3.241 0 0 1-.648-1.056 3.739 3.739 0 0 1-.228-1.32v-.252c0-.464.072-.9.216-1.308.152-.408.36-.764.624-1.068a2.85 2.85 0 0 1 .972-.708c.4-.18.834-.27 1.272-.264.512 0 .96.112 1.344.336.334.184.61.45.828.797V97.24h1.668V106h-1.32v-1.349a2.919 2.919 0 0 1-.12.245c-.248.44-.576.772-.984.996-.4.216-.856.324-1.368.324Zm-9.237-.264c.44.184.948.276 1.524.276.568 0 1.072-.092 1.512-.276.44-.184.812-.432 1.116-.744.304-.32.532-.68.684-1.08.16-.4.24-.816.24-1.248v-.252c0-.448-.08-.872-.24-1.272a3.122 3.122 0 0 0-.708-1.08 3.102 3.102 0 0 0-1.116-.744 3.828 3.828 0 0 0-1.488-.276c-.552 0-1.048.092-1.488.276-.44.176-.816.424-1.128.744-.304.312-.54.672-.708 1.08-.16.4-.24.824-.24 1.272v.252c0 .432.076.848.228 1.248.16.4.392.76.696 1.08.304.312.676.56 1.116.744Zm-9.679-8.772v8.88h3.504c.664 0 1.22-.096 1.668-.288.456-.2.796-.48 1.02-.84.232-.368.348-.812.348-1.332v-.168c0-.552-.132-.992-.396-1.32a1.97 1.97 0 0 0-.843-.615c.188-.119.349-.262.483-.429.264-.328.396-.764.396-1.308v-.168c0-.776-.26-1.372-.78-1.788-.512-.416-1.264-.624-2.256-.624h-3.144Zm-6.118 8.148.63.672h1.356l-1.367-1.452c.244-.42.425-.872.539-1.344a8.304 8.304 0 0 0 .251-2.004h.721v-.912h-3.144v.912h1.391c-.012.852-.123 1.572-.335 2.16-.047.137-.102.27-.164.401l-2.152-2.285c-.352-.376-.612-.712-.78-1.008a2.011 2.011 0 0 1-.24-.972c0-.44.112-.772.336-.996.232-.232.632-.348 1.2-.348.16 0 .364.008.612.024.248.008.5.024.756.048.256.016.464.032.624.048v-1.008c-.256-.032-.548-.06-.876-.084a12.298 12.298 0 0 0-.888-.036c-.672 0-1.22.088-1.644.264-.424.168-.736.424-.936.768-.192.344-.288.776-.288 1.296 0 .296.04.572.12.828.07.204.176.417.316.641a3.818 3.818 0 0 0-.988.943c-.32.44-.48.948-.48 1.524v.18c0 .488.128.932.384 1.332s.616.716 1.08.948c.464.232 1.004.348 1.62.348.6 0 1.132-.12 1.596-.36.276-.14.526-.316.75-.528Zm-13.146.888a3.1 3.1 0 0 1-1.26-.252 2.948 2.948 0 0 1-.996-.708 3.245 3.245 0 0 1-.648-1.056 3.753 3.753 0 0 1-.228-1.32v-.252c0-.464.072-.9.216-1.308.152-.408.36-.764.624-1.068a2.85 2.85 0 0 1 .972-.708c.4-.18.834-.27 1.272-.264.512 0 .96.112 1.344.336.334.184.61.45.828.797V97.24h1.668V106h-1.32v-1.349a2.72 2.72 0 0 1-.12.245c-.248.44-.576.772-.984.996-.4.216-.856.324-1.368.324ZM77.3 99.484V106h1.668v-3.828c0-.424.124-.76.372-1.008.256-.256.588-.384.996-.384.4 0 .712.124.936.372.232.248.348.572.348.972V106h1.668v-3.732c0-.992-.2-1.736-.6-2.232-.4-.504-.988-.756-1.764-.756h-.072c-.52 0-.956.112-1.308.336-.344.224-.604.56-.78 1.008a3.14 3.14 0 0 0-.144.466v-1.606H77.3ZM73.71 106v-5.268h-.913v-1.248h2.58V106H73.71Zm.611-7.296c-.328 0-.572-.084-.732-.252a.957.957 0 0 1-.228-.648c0-.272.076-.492.228-.66.16-.168.404-.252.732-.252.328 0 .568.084.72.252.152.168.228.388.228.66a.957.957 0 0 1-.228.648c-.152.168-.392.252-.72.252Zm-12.24-1.464V106h1.56v-6.908l2.147 5.12h1.74l2.148-5.146V106h1.692v-8.76h-2.364l-2.184 5.232h-.216l-2.196-5.232h-2.327Z" clip-rule="evenodd"></path></svg> 