<?xml version="1.0" encoding="UTF-8"?> <svg xmlns="http://www.w3.org/2000/svg" width="200" height="150" fill="none" viewBox="0 0 200 150"><path fill="#003341" fill-opacity=".75" d="M64 109h16v1H64v-1Z"></path><path fill="#003341" fill-opacity=".75" d="M64 109h16v1H64v-1Z"></path><path fill="#003341" fill-opacity=".75" d="M64 109h16v1H64v-1Z"></path><path fill="#003341" fill-opacity=".75" d="M64 109h16v1H64v-1Z"></path><path fill="#003341" fill-opacity=".75" d="M64 109h16v1H64v-1Zm56 0h16v1h-16v-1Z"></path><path fill="#003341" fill-opacity=".75" d="M120 109h16v1h-16v-1Z"></path><path fill="#003341" fill-opacity=".75" d="M120 109h16v1h-16v-1Z"></path><path fill="#003341" fill-opacity=".75" d="M120 109h16v1h-16v-1Z"></path><path fill="#003341" fill-opacity=".75" d="M120.001 109h16v1h-16v-1Zm-11.258-33.692c-.046 0-.069-.03-.069-.092l1.541-8.165c.015-.03.031-.046.046-.046s.031.015.046.046l1.564 8.165c0 .061-.023.092-.069.092h-3.059Zm-8.649 2.967c.613 0 1.104-.2 1.472-.598.368-.414.552-.95.552-1.61v-8.234c0-.66-.184-1.189-.552-1.587-.368-.414-.859-.621-1.472-.621-.598 0-1.081.207-1.45.62-.352.4-.528.928-.528 1.588v8.234c0 .66.176 1.196.529 1.61.368.398.85.598 1.449.598ZM47.477 66.514c0-.059.03-.088.088-.088h1.408c.69 0 1.224.22 1.606.66.38.425.572 1.026.572 1.804 0 .748-.19 1.335-.572 1.76-.382.41-.917.616-1.606.616h-1.408c-.06 0-.088-.03-.088-.088v-4.664Zm3.19 10.956c-.382.454-.91.682-1.584.682h-1.518c-.06 0-.088-.03-.088-.088v-5.148c0-.059.03-.088.088-.088h1.54c.674 0 1.202.242 1.584.726.38.47.572 1.13.572 1.98 0 .836-.198 1.481-.594 1.936Z"></path><path fill="#003341" fill-opacity=".75" fill-rule="evenodd" d="M158.11 52.424 165 64.296 162.326 79.4l1.359 8.716-.123.206-3.974 6.53-2.431 13.711-12.008 10.029-4.38 7.201-7.145 2.424-11.052 9.236h-16.176L98.886 140l-.211-.087-6.387-2.46H77.43l-12.753-10.656-7.04-2.709-.11-.215-3.13-5.665-11.553-9.645-2.933-16.56-3.597-6.502.046-.234 1.245-6.276L35 64.296l8.399-14.48 1.492-7.522.19-.155 5.169-4.14 7.32-12.626 15.416-5.586 6.378-5.108 7.305.151L100.002 10l14.927 5.412 8.668.178.179.159 5.643 4.915 13.005 4.709 7.751 13.366 6.715 5.85.036.236 1.184 7.599ZM79.812 15.993l-33.729 27.01-1.688 8.503h-.002v.008l.002-.008h112.26l-.972-6.246-32.584-28.378-43.287-.89v.001ZM98.92 138.62l40.985-13.902 22.413-36.872-2.714 4.463H41.569l16.986 30.735L98.92 138.62Zm49.184-59.563c.751.751 1.733 1.127 2.944 1.127 1.211 0 2.193-.383 2.944-1.15.751-.782 1.127-1.817 1.127-3.105 0-.706-.13-1.311-.391-1.817a4.503 4.503 0 0 0-1.081-1.426c-.46-.43-1.15-.99-2.07-1.68-.966-.704-1.618-1.264-1.955-1.678-.337-.43-.506-.95-.506-1.564 0-.675.169-1.196.506-1.564.337-.383.774-.575 1.311-.575.567 0 1.027.215 1.38.644.353.414.529.966.529 1.656v.62c0 .154.077.23.23.23h1.702c.153 0 .23-.076.23-.23v-.574c0-1.273-.376-2.3-1.127-3.082-.736-.782-1.717-1.173-2.944-1.173-1.181 0-2.139.368-2.875 1.104-.736.72-1.104 1.702-1.104 2.944 0 .782.153 1.464.46 2.047a5.538 5.538 0 0 0 1.127 1.495c.445.414 1.058.912 1.84 1.495.705.521 1.211.92 1.518 1.196.31.246.568.55.759.897.199.337.299.728.299 1.173 0 .66-.184 1.196-.552 1.61-.353.398-.805.598-1.357.598a1.703 1.703 0 0 1-1.357-.621c-.353-.43-.529-.997-.529-1.702v-.483c0-.153-.077-.23-.23-.23h-1.702c-.153 0-.23.076-.23.23v.598c0 1.227.368 2.223 1.104 2.99Zm-2.775-13.478c0 .153-.076.23-.23.23h-5.175c-.061 0-.092.03-.092.092v4.99c0 .062.031.093.092.093h3.174c.154 0 .23.077.23.23v1.449c0 .153-.076.23-.23.23h-3.174c-.061 0-.092.03-.092.092v5.014c0 .061.031.092.092.092h5.175c.154 0 .23.077.23.23v1.449c0 .153-.076.23-.23.23h-7.245c-.153 0-.23-.077-.23-.23V64.13c0-.153.077-.23.23-.23h7.245c.154 0 .23.077.23.23v1.449Zm-12.391-1.68c-.153 0-.23.078-.23.23v6.763c0 .061-.031.092-.092.092h-3.473c-.061 0-.092-.03-.092-.092V64.13c0-.153-.077-.23-.23-.23h-1.748c-.153 0-.23.077-.23.23v15.64c0 .153.077.23.23.23h1.748c.153 0 .23-.077.23-.23v-6.785c0-.061.031-.092.092-.092h3.473c.061 0 .092.03.092.092v6.785c0 .153.077.23.23.23h1.748c.153 0 .23-.077.23-.23V64.13c0-.153-.077-.23-.23-.23h-1.748v-.001Zm-12.676 16.285c-1.242 0-2.247-.376-3.013-1.127-.752-.767-1.127-1.779-1.127-3.036v-8.165c0-1.257.375-2.262 1.127-3.013.766-.752 1.771-1.127 3.013-1.127 1.257 0 2.261.375 3.013 1.127.766.751 1.15 1.755 1.15 3.013v.368c0 .153-.077.23-.23.23l-1.748.092c-.154 0-.23-.077-.23-.23v-.598c0-.629-.184-1.135-.552-1.518-.353-.383-.821-.575-1.403-.575-.583 0-1.051.192-1.403.575-.353.383-.529.89-.529 1.518v8.464c0 .629.176 1.135.529 1.518.352.383.82.575 1.403.575.582 0 1.05-.192 1.403-.575.368-.383.552-.89.552-1.518v-.598c0-.154.076-.23.23-.23l1.748.092c.153 0 .23.076.23.23v.345c0 1.257-.384 2.27-1.15 3.036-.752.751-1.756 1.127-3.013 1.127Zm-7.495-.391c.031.138.115.207.253.207h1.794c.138 0 .207-.07.207-.207v-.046l-3.45-15.64c-.015-.138-.1-.207-.253-.207h-2.047c-.138 0-.222.069-.253.207l-3.427 15.64c-.015.076-.008.138.023.184a.243.243 0 0 0 .184.069h1.748c.153 0 .238-.07.253-.207l.483-2.645a.1.1 0 0 1 .023-.07.207.207 0 0 1 .092-.022h3.749c.031 0 .054.008.069.023.031.015.046.038.046.069l.506 2.645Zm-12.674.39c-1.258 0-2.27-.383-3.036-1.15-.767-.766-1.15-1.785-1.15-3.058v-8.027c0-1.273.383-2.292 1.15-3.06.766-.781 1.778-1.172 3.036-1.172 1.272 0 2.292.39 3.059 1.173.782.767 1.173 1.786 1.173 3.059v8.027c0 1.273-.391 2.292-1.173 3.059-.767.766-1.787 1.149-3.059 1.149Zm-13.459-1.126c.767.751 1.771 1.127 3.013 1.127 1.258 0 2.262-.376 3.013-1.127.767-.767 1.15-1.779 1.15-3.036v-.345c0-.154-.076-.23-.23-.23l-1.748-.092c-.153 0-.23.076-.23.23v.598c0 .629-.184 1.135-.552 1.518-.352.383-.82.575-1.403.575-.582 0-1.05-.192-1.403-.575-.352-.383-.529-.89-.529-1.518v-8.464c0-.629.177-1.135.53-1.518.352-.383.82-.575 1.402-.575.583 0 1.05.192 1.403.575.368.383.552.89.552 1.518v.598c0 .153.077.23.23.23l1.748-.092c.154 0 .23-.077.23-.23v-.368c0-1.257-.383-2.262-1.15-3.013-.751-.752-1.755-1.127-3.013-1.127-1.242 0-2.246.375-3.013 1.127-.751.751-1.127 1.755-1.127 3.013v8.165c0 1.257.376 2.27 1.127 3.036ZM79.99 64.6c.147 0 .22.073.22.22v1.386c0 .147-.073.22-.22.22h-2.882c-.059 0-.088.03-.088.088V79.78c0 .147-.073.22-.22.22h-1.672c-.147 0-.22-.073-.22-.22V66.514c0-.059-.03-.088-.088-.088h-2.728c-.147 0-.22-.073-.22-.22V64.82c0-.147.073-.22.22-.22h7.898ZM64.412 79.098c.719.719 1.657 1.078 2.816 1.078 1.159 0 2.098-.367 2.816-1.1.719-.748 1.078-1.738 1.078-2.97 0-.675-.124-1.254-.374-1.738a4.317 4.317 0 0 0-1.034-1.364c-.44-.41-1.1-.946-1.98-1.606-.924-.675-1.547-1.21-1.87-1.606-.323-.41-.484-.91-.484-1.496 0-.646.162-1.144.484-1.496.323-.367.74-.55 1.254-.55.543 0 .983.205 1.32.616.337.396.506.924.506 1.584v.594c0 .147.073.22.22.22h1.628c.147 0 .22-.073.22-.22v-.55c0-1.218-.36-2.2-1.078-2.948-.704-.748-1.642-1.122-2.816-1.122-1.13 0-2.046.352-2.75 1.056-.704.69-1.056 1.628-1.056 2.816 0 .748.147 1.4.44 1.958a5.31 5.31 0 0 0 1.078 1.43c.425.396 1.012.873 1.76 1.43.675.498 1.159.88 1.452 1.144.308.25.55.535.726.858.19.323.286.697.286 1.122 0 .63-.176 1.144-.528 1.54-.337.381-.77.572-1.298.572s-.96-.198-1.298-.594c-.337-.41-.506-.954-.506-1.628v-.462c0-.147-.073-.22-.22-.22h-1.628c-.147 0-.22.073-.22.22v.572c0 1.173.352 2.127 1.056 2.86Zm-2.214-12.892c0 .147-.073.22-.22.22h-4.95c-.059 0-.088.03-.088.088v4.774c0 .059.03.088.088.088h3.036c.147 0 .22.073.22.22v1.386c0 .147-.073.22-.22.22h-3.036c-.059 0-.088.03-.088.088v4.796c0 .058.03.088.088.088h4.95c.147 0 .22.073.22.22v1.386c0 .147-.073.22-.22.22h-6.93c-.147 0-.22-.073-.22-.22V64.82c0-.147.073-.22.22-.22h6.93c.147 0 .22.073.22.22v1.386ZM52.228 78.9c.762-.734 1.144-1.768 1.144-3.102 0-.865-.169-1.614-.506-2.244a3.582 3.582 0 0 0-1.364-1.474c-.059-.03-.052-.066.022-.11 1.13-.602 1.694-1.694 1.694-3.278 0-1.335-.382-2.347-1.144-3.036-.748-.704-1.79-1.056-3.124-1.056h-3.366c-.147 0-.22.073-.22.22v14.96c0 .147.073.22.22.22h3.674c1.232 0 2.222-.367 2.97-1.1Z" clip-rule="evenodd"></path><path fill="#003341" fill-opacity=".75" d="M109.881 44.184c-.075 0-.112-.053-.112-.16v-.944c0-.107.053-.16.16-.16h.016c.384-.01.682-.064.896-.16.224-.096.405-.277.544-.544.138-.256.266-.645.384-1.168.01-.01.01-.027 0-.048v-.048l-2.352-7.92-.016-.048c0-.085.053-.128.16-.128h1.296c.106 0 .165.048.176.144l1.504 5.904c.01.021.021.037.032.048.01 0 .021-.016.032-.048L114.089 33c.021-.096.08-.144.176-.144l1.28.016c.053 0 .09.016.112.048.032.032.042.075.032.128l-2.544 8.512c-.224.736-.448 1.28-.672 1.632-.21.35-.531.621-.912.768-.374.15-.902.224-1.584.224h-.096ZM106.795 41c-.107 0-.16-.053-.16-.16V29.96c0-.107.053-.16.16-.16h1.215c.107 0 .16.053.16.16v10.88c0 .107-.053.16-.16.16h-1.215Zm-3.622-7.984c0-.107.053-.16.16-.16h1.216c.107 0 .16.053.16.16v7.824c0 .107-.053.16-.16.16h-1.216c-.107 0-.16-.053-.16-.16v-.496c0-.02-.011-.037-.032-.048-.011-.01-.027-.005-.048.016-.373.533-.96.8-1.76.8-.725 0-1.328-.213-1.808-.64-.47-.427-.704-1.045-.704-1.856v-5.6c0-.107.053-.16.16-.16h1.2c.107 0 .16.053.16.16V38.2c0 .501.117.89.352 1.168.245.277.592.416 1.04.416.437 0 .784-.144 1.04-.432.267-.299.4-.699.4-1.2v-5.136Zm-6.35-.24c.32 0 .593.064.817.192.074.032.1.096.08.192l-.24 1.216c-.01.107-.075.139-.192.096a1.666 1.666 0 0 0-.528-.08 2 2 0 0 0-.304.016c-.416.032-.763.224-1.04.576-.278.341-.416.752-.416 1.232v4.624c0 .107-.054.16-.16.16h-1.217c-.107 0-.16-.053-.16-.16v-7.824c0-.107.053-.16.16-.16h1.216c.106 0 .16.053.16.16v1.024c0 .032.005.053.016.064.02 0 .037-.01.048-.032.384-.864.97-1.296 1.76-1.296ZM92.41 29.8c.107 0 .16.053.16.16v1.024c0 .107-.053.16-.16.16h-2.576c-.043 0-.064.021-.064.064v9.632c0 .107-.053.16-.16.16h-1.216c-.107 0-.16-.053-.16-.16v-9.632c0-.043-.021-.064-.064-.064h-2.464c-.107 0-.16-.053-.16-.16V29.96c0-.107.053-.16.16-.16h6.704Zm21.324 79.952c.16.523.24 1.115.24 1.776 0 .555-.048 1.024-.144 1.408-.181.704-.528 1.248-1.04 1.632-.501.374-1.13.56-1.888.56-.757 0-1.392-.197-1.904-.592-.501-.394-.837-.949-1.008-1.664a4.463 4.463 0 0 1-.112-.64v-.032c0-.085.048-.128.144-.128h1.232c.107 0 .166.054.176.16.022.171.043.283.064.336.086.395.251.699.496.912.246.203.55.304.912.304.363 0 .667-.106.912-.32.256-.213.427-.517.512-.912.064-.245.096-.581.096-1.008 0-.416-.037-.789-.112-1.12-.085-.362-.25-.634-.496-.816-.245-.192-.549-.288-.912-.288-.352 0-.656.08-.912.24-.245.16-.421.4-.528.72-.021.086-.08.128-.176.128h-1.248c-.106 0-.16-.053-.16-.16v-6.288c0-.106.054-.16.16-.16h5.456c.107 0 .16.054.16.16v1.008c0 .107-.053.16-.16.16h-4.016c-.042 0-.064.022-.064.064l-.016 3.408c0 .054.027.064.08.032.217-.215.479-.379.768-.48.312-.117.643-.177.976-.176.63 0 1.163.155 1.6.464.438.299.742.736.912 1.312Zm-11.255 3.84c-.032.054-.021.08.032.08h4.24c.107 0 .16.054.16.16v1.008c0 .107-.053.16-.16.16h-6.032c-.107 0-.16-.053-.16-.16v-1.024c0-.074.021-.138.064-.192 1.376-1.77 2.448-3.194 3.216-4.272.821-1.141 1.232-2.053 1.232-2.736 0-.49-.139-.88-.416-1.168-.277-.298-.645-.448-1.104-.448-.448 0-.811.15-1.088.448-.267.288-.395.672-.384 1.152v.56c0 .107-.053.16-.16.16h-1.232c-.107 0-.16-.053-.16-.16v-.688c.021-.842.315-1.52.88-2.032.576-.512 1.301-.768 2.176-.768.608 0 1.141.128 1.6.384.459.246.811.592 1.056 1.04.256.448.384.955.384 1.52 0 .95-.427 2.027-1.28 3.232-.491.694-1.291 1.744-2.4 3.152l-.464.592Zm-6.222 1.568c-.97 0-1.75-.288-2.335-.864-.576-.576-.865-1.349-.865-2.32v-5.152c0-.96.288-1.728.864-2.304.587-.576 1.366-.864 2.337-.864.97 0 1.749.288 2.335.864.587.576.88 1.344.88 2.304v5.152c0 .971-.293 1.744-.88 2.32-.586.576-1.366.864-2.336.864Zm0-1.328c.502 0 .907-.16 1.217-.48.309-.33.464-.762.464-1.296v-5.296c0-.533-.155-.96-.465-1.28-.31-.33-.714-.496-1.216-.496-.5 0-.906.166-1.215.496-.3.32-.45.747-.45 1.28v5.296c0 .534.15.966.45 1.296.309.32.714.48 1.215.48Zm-8.615-.24c-.032.054-.021.08.032.08h4.24c.107 0 .16.054.16.16v1.008c0 .107-.053.16-.16.16h-6.032c-.107 0-.16-.053-.16-.16v-1.024a.3.3 0 0 1 .064-.192c1.376-1.77 2.448-3.194 3.216-4.272.82-1.141 1.232-2.053 1.232-2.736 0-.49-.14-.88-.416-1.168-.277-.298-.645-.448-1.104-.448-.448 0-.81.15-1.088.448-.267.288-.395.672-.384 1.152v.56c0 .107-.053.16-.16.16H85.85c-.107 0-.16-.053-.16-.16v-.688c.02-.842.315-1.52.88-2.032.576-.512 1.3-.768 2.176-.768.608 0 1.14.128 1.6.384.459.246.81.592 1.056 1.04.256.448.384.955.384 1.52 0 .95-.427 2.027-1.28 3.232-.49.694-1.29 1.744-2.4 3.152l-.464.592Z"></path></svg> 