<?xml version="1.0" encoding="UTF-8"?> <svg xmlns="http://www.w3.org/2000/svg" width="200" height="150" fill="none" viewBox="0 0 200 150"><path fill="#003341" fill-opacity=".75" d="M140.353 96.588c-.669 0-1.207.204-1.615.612-.397.397-.641.975-.731 1.734h4.505c-.012-1.564-.731-2.346-2.159-2.346Zm-36.76 4.947c-.669.861-1.609 1.292-2.822 1.292-1.179 0-2.08-.397-2.703-1.19-.623-.793-.935-1.944-.935-3.451 0-1.564.334-2.771 1.003-3.621.67-.861 1.61-1.292 2.822-1.292 1.179 0 2.08.397 2.703 1.19.623.793.935 1.938.935 3.434 0 1.564-.334 2.777-1.003 3.638Zm-33.092-4.947c-.668 0-1.207.204-1.615.612-.396.397-.64.975-.73 1.734h4.504c-.01-1.564-.73-2.346-2.159-2.346Zm-11.97.544v-3.69h1.734c.975 0 1.672.137 2.091.409.42.26.63.703.63 1.326 0 .635-.239 1.122-.715 1.462-.465.329-1.145.493-2.04.493h-1.7Zm4.165 4.981c-.555.363-1.445.544-2.669.544h-1.496v-4.182h2.16c1.892 0 2.838.629 2.838 1.887 0 .805-.278 1.388-.833 1.751Z"></path><path fill="#003341" fill-opacity=".75" fill-rule="evenodd" d="M166.59 103.258 180 115.703v.03h-35.03c-.154.055-.307.111-.46.169l-.395.146.016.147c.041.354.08.705.089 1.088.09 1.93-.42 3.985-2.89 4.87-.66.265-1.915.44-3.375.63l-.009.234c-.009.239-.017.473-.051.726-.29 2.73-1.63 4.35-3.99 4.815-.44.09-1.115.145-2.17.145a86.94 86.94 0 0 1-1.841-.029l-.079-.001c-.48-.035-.95-.045-1.43-.05l-.037.181c-.076.371-.151.737-.263 1.129-.595 1.745-1.77 3.475-4.34 3.65-.698.024-1.886-.237-3.254-.538l-.101-.022-.105.28c-.083.226-.165.451-.275.685-1.215 2.34-2.98 3.425-5.325 3.255-.711-.09-1.7-.462-2.941-.928l-.019-.007c-.72-.28-1.535-.575-2.365-.85l-.04.062-.081.129c-.178.292-.369.575-.574.849-1.14 1.45-2.78 2.97-5.28 2.09-.644-.201-1.618-.78-2.744-1.449l-.246-.146a8.312 8.312 0 0 0-.251.279c-.135.154-.272.31-.434.466-.88.83-2.245 1.925-3.96 1.925-.715 0-1.435-.19-2.15-.56-.625-.305-1.49-1.01-2.49-1.83a52.484 52.484 0 0 0-1.955-1.555l-.194.158c-.254.209-.508.417-.791.617-.79.55-1.675 1.01-2.64 1.165-.95.07-1.985-.175-3.03-.925-.57-.405-1.405-1.34-2.345-2.445-.108.06-.215.121-.32.185l-.001.001a6.282 6.282 0 0 1-.514.284c-1.085.53-2.065.8-2.995.815-1.215-.09-2.28-.59-3.22-1.515-.595-.57-1.38-1.81-2.34-3.37-.174-.299-.388-.63-.603-.965l-.187-.29c-.103.039-.205.079-.307.12-.3.118-.603.238-.928.335-1.795.47-3.88.42-5.43-1.63-.377-.529-.771-1.558-1.233-2.762l-.122-.318a5.68 5.68 0 0 0-.13.029l-.063.015h-.003a9.271 9.271 0 0 1-.809.161c-2.545.26-4.52-.615-5.635-2.68-.325-.645-.555-1.69-.845-3.02l-.034-.151a59.721 59.721 0 0 0-.551-2.289l-.125.001a3.89 3.89 0 0 1-.108.002l-.02.001c-.332.005-.663.011-1.022-.009-1.31-.105-2.725-.455-3.69-1.535H20l13.4-12.45-12.45-12.955h15.295c-.855-.975-1.375-2.285-1.04-4.115.055-.705.57-1.755 1.225-3.09.325-.65.66-1.355.965-2.06-1.8-1.37-3.745-3.185-2.695-6.265.283-.589.915-1.486 1.64-2.512l.21-.298c-1.545-1.63-3.105-3.88-1.55-6.885.373-.57 1.02-1.247 1.775-2.037l.165-.173c.58-.6 1.225-1.27 1.85-1.985a45.808 45.808 0 0 0-.176-.261c-.182-.27-.366-.541-.544-.844-.91-1.63-1.58-3.725.215-5.675.385-.454 1.203-1.054 2.151-1.75l.489-.36c-.044-.1-.09-.196-.136-.292a7.231 7.231 0 0 1-.239-.538v-.002c-.371-.986-1.494-3.974 1.215-6.138.454-.41 1.338-.873 2.357-1.407l.073-.038c.355-.185.73-.385 1.11-.595l.43-.22c.162-.084.319-.17.476-.257.135-.073.269-.147.404-.218-.61-2.205-1.08-4.86 1.74-6.575.542-.397 1.7-.72 3.044-1.094l.131-.036c-.23-2.245-.1-4.995 3.055-6.32.625-.335 1.775-.48 3.23-.655.725-.085 1.5-.2 2.26-.325l.006-.11c.023-.409.045-.823.119-1.245.3-1.815 1.06-3.885 3.645-4.35.643-.123 1.747-.08 3.032-.03l.378.015c.021-.092.04-.182.059-.272a5.71 5.71 0 0 1 .156-.633c.32-.99 1.295-3.995 4.71-4.1h.145c.705 0 1.74.195 2.935.425.775.15 1.6.305 2.43.43l.084-.211c.136-.341.273-.686.451-1.034.825-1.78 2.295-3.22 4.87-2.9.642.014 1.695.439 2.909.93l.336.135c.065-.1.124-.198.183-.297.093-.154.187-.31.302-.473 1.44-2.18 3.435-2.995 5.79-2.335.68.122 1.645.693 2.866 1.415l.084.05c.62.37 1.29.75 1.96 1.11l.181-.214.004-.004c.233-.277.471-.558.74-.827 1.36-1.255 3.21-2.21 5.55-1.14.595.256 1.441.99 2.431 1.848l.279.242c.08-.067.156-.133.233-.2.157-.135.313-.27.492-.405 2.215-1.5 4.285-1.59 6.23-.315.603.373 1.319 1.208 2.224 2.262l.011.013c.465.555 1.005 1.17 1.56 1.765l.198-.113.002-.001c.326-.194.664-.37 1.01-.526 1.695-.74 3.84-1.225 5.635.685.487.496 1.092 1.516 1.794 2.7l.101.17c.111-.038.217-.079.323-.12.187-.07.371-.141.572-.195.79-.21 1.49-.315 2.135-.315 1.635 0 2.935.68 3.87 2.025.41.58.835 1.615 1.325 2.815.28.685.615 1.455.96 2.22 2.24-.44 4.955-.715 6.4 2.275.351.553.569 1.673.825 2.982l.065.333c.072 0 .141-.004.21-.008.069-.003.137-.007.21-.007 1.94 0 4.64.375 5.63 3.585.275.622.328 1.735.396 3.15l.004.085c.03.685.075 1.465.14 2.235 2.25.325 4.855.99 5.375 4.225.059.588-.069 1.589-.219 2.754v.003l-.006.045v.003l-.039.3-.041.33c2.14.69 4.605 1.92 4.64 5.32-.024.646-.295 1.6-.608 2.698l-.042.147c-.056.209-.117.422-.179.64-.053.189-.108.38-.161.575-.069.285-.132.57-.196.858l-.114.512c.38.19.75.375 1.125.61 1.64.995 3.13 2.54 2.5 5.09-.112.579-.544 1.495-1.038 2.542l-.302.643c.079.06.157.117.235.174.168.123.336.245.51.396 2.13 1.765 2.755 3.785 1.845 5.975-.21.58-.77 1.43-1.425 2.415-.225.325-.47.685-.705 1.05-.216.312-.417.612-.619.915l-.002.002-.001.002-.003.004-.175.262c1.585 1.63 3.255 3.745 1.58 6.575-.281.604-1.141 1.44-2.137 2.406l-.153.149c.385.57.765 1.205 1.06 1.885h19.07l-12.45 12.955Zm-7.065-34.26c-.625 1.25-1.235 2.555-1.505 3.855.01.302.03.599.05.895.029.44.058.877.055 1.325 0 .54-.037 1.073-.074 1.606-.021.297-.042.595-.056.894.245.3.57.63.915.98.108-.155.213-.313.317-.47.122-.185.244-.37.373-.55.225-.35.46-.71.695-1.05l.058-.087c.591-.884 1.103-1.65 1.277-2.133.745-1.815.245-3.35-1.56-4.86a5.206 5.206 0 0 0-.385-.291l-.062-.044-.098-.07Zm-.635 21.3a10.343 10.343 0 0 0-.695-1.165c-.328.32-.635.658-.938.992l-.157.173h1.79Zm-.91-36.545c-.03-2.645-1.865-3.66-3.75-4.3-.13 1.42-.24 2.92-.1 4.315.54 1.415 1.06 2.845 1.5 4.315.31.21.72.415 1.14.625l.088-.402c.047-.222.094-.443.147-.648.087-.344.171-.643.249-.918l.001-.002.11-.395c.305-1.06.59-2.06.615-2.59ZM37.695 90.303h1.7c.29-1.02.54-2.075.59-3.075-.325-1.57-.545-3.19-.745-4.79-.255-.233-.57-.465-.909-.716l-.121-.09c-.285.65-.585 1.3-.88 1.896-.565 1.14-1.095 2.22-1.135 2.785-.36 1.94.39 3.115 1.5 3.99Zm-.575-19.19c.8-1.155 1.605-2.42 2.155-3.675.205-1.56.42-3.12.74-4.65-.17-.315-.42-.68-.67-1.04a81.615 81.615 0 0 1-1.685 1.81l-.146.152c-.728.76-1.354 1.413-1.654 1.868-1.2 2.305-.085 4.075 1.26 5.535Zm110.995-32.52c-.045-1.235-.095-2.405-.32-2.925-.84-2.69-2.965-2.985-4.925-2.94.295 1.405.675 2.875 1.305 4.055.98 1.175 1.88 2.4 2.765 3.64.301.077.66.128 1.042.181l.166.024.057.008.045.007c-.055-.7-.11-1.42-.135-2.05Zm-15.83-16.895c-1.07-1.54-2.545-1.96-4.93-1.325-.136.036-.268.08-.398.134-.077.03-.154.06-.232.086.755 1.205 1.59 2.46 2.53 3.455 1.31.79 2.59 1.615 3.835 2.51.437-.04.872-.108 1.3-.205-.32-.695-.625-1.41-.885-2.04-.47-1.14-.88-2.12-1.22-2.615Zm-19.16-8.09c-1.63-1.06-3.27-.955-5.115.295-.1.073-.192.153-.285.233a4.741 4.741 0 0 1-.255.212c1.04.87 2.175 1.75 3.33 2.335 1.59.33 3.14.745 4.685 1.205.24-.107.505-.261.78-.42l.295-.17a45.683 45.683 0 0 1-1.425-1.6l-.031-.036c-.773-.907-1.495-1.753-1.979-2.054Zm-22.045-1.61c-1.345 0-2.505.72-3.435 2.125a5.491 5.491 0 0 0-.222.346c-.044.071-.087.143-.133.214 1.31.515 2.7 1.01 4.02 1.16 1.545-.185 3.12-.28 4.695-.34.205-.19.421-.447.645-.713v-.001l.2-.236c-.63-.34-1.26-.69-1.8-1.01-1.075-.64-2.095-1.245-2.66-1.35a5.042 5.042 0 0 0-1.31-.195Zm-18.755 5.55c-1.985.055-3.16 1.11-3.905 3.415-.046.127-.07.253-.096.378-.016.08-.032.161-.054.242 1.42.04 2.93.025 4.28-.225a60.068 60.068 0 0 1 4.225-1.86c.156-.27.297-.625.443-.992l.067-.168c-.74-.113-1.476-.24-2.21-.385-1.145-.22-2.135-.405-2.75-.405ZM57.912 28.596c-1.237.154-2.4.298-2.902.562-2.51 1.055-2.7 3.1-2.505 5.135 1.34-.395 2.74-.86 3.87-1.535a57.687 57.687 0 0 1 3.52-3.2c.049-.32.066-.721.084-1.123l.006-.147c-.705.12-1.42.225-2.05.305l-.023.003ZM41.646 51.174c.033.068.066.136.099.209l.042-.03c1.133-.822 2.349-1.703 3.213-2.74a62.333 62.333 0 0 1 2.215-4.055c-.055-.38-.18-.825-.32-1.3l-.228.125c-.159.088-.32.177-.472.255l-.42.22c-.38.205-.76.405-1.12.59l-.153.081c-.93.495-1.723.917-2.102 1.254-1.5 1.195-1.775 2.74-.92 5.02a4.4 4.4 0 0 0 .166.371Zm18.399 73.259c.265 0 .525-.015.785-.04.135-.021.266-.049.396-.076.12-.025.239-.05.359-.069-.53-1.33-1.145-2.725-1.925-3.85-1.17-1.005-2.34-2.04-3.445-3.14-.373-.035-.829-.02-1.296-.006l-.009.001c.195.76.38 1.53.535 2.22l.024.108c.255 1.159.474 2.157.731 2.662.8 1.465 2.06 2.19 3.845 2.19Zm16.31 10.145c.74-.01 1.58-.24 2.525-.715.13-.062.247-.133.364-.203.081-.049.162-.097.246-.142-.91-1.105-1.9-2.215-3.015-2.975a57.72 57.72 0 0 1-4.26-1.91c-.348.093-.76.254-1.186.421l-.099.039.238.373c.16.251.322.502.452.722.885 1.43 1.665 2.67 2.185 3.17.765.745 1.62 1.155 2.55 1.22Zm19.395 4.08c1.36 0 2.52-.935 3.27-1.65.124-.114.229-.237.338-.365l.046-.054.035-.04.027-.032.02-.022.024-.027c-1.22-.695-2.53-1.41-3.825-1.84-1.57-.065-3.13-.18-4.665-.365-.29.181-.613.448-.95.728l-.105.087c.62.47 1.24.96 1.78 1.4l.02.015c.946.774 1.764 1.442 2.29 1.7.58.315 1.145.465 1.695.465Zm19.42-2.405c1.705 0 2.99-.89 3.94-2.72.057-.123.105-.247.153-.37.043-.113.087-.225.137-.335-1.36-.28-2.815-.525-4.15-.505-1.52.455-3.055.865-4.615 1.19-.221.288-.451.659-.686 1.038l-.029.047c.745.245 1.495.515 2.15.765 1.145.435 2.13.805 2.705.875.125.01.265.015.395.015Zm-50.88-20.55c9.245 7.785 21.15 12.485 34.145 12.485 12.995 0 24.9-4.705 34.135-12.485H64.29Zm69.41 11.855c1.915-.37 2.96-1.67 3.205-3.955.02-.163.027-.318.033-.472l.012-.233c-1.465.155-2.97.41-4.23.965a58.123 58.123 0 0 1-3.795 2.43c-.1.287-.17.628-.245.989l-.028.138-.042.198c.42.005.83.01 1.24.035l.033.001c.644.014 1.277.029 1.842.029.62 0 1.485-.015 1.975-.125Zm-88.38-52.48c0 2.995.305 5.905.785 8.75h104.66c.47-2.845.78-5.755.78-8.75 0-29.29-23.825-53.12-53.11-53.12S45.32 45.788 45.32 75.078Zm98.741 24.247c0 .057-.017.306-.051.748h-6.035c.056.861.306 1.541.748 2.04.442.487 1.031.731 1.768.731.498 0 .895-.079 1.19-.238.294-.159.572-.442.833-.85.09-.136.175-.232.255-.289a.64.64 0 0 1 .748.085.475.475 0 0 1 .204.391c0 .215-.08.436-.238.663-.329.533-.737.929-1.224 1.19-.488.249-1.094.374-1.819.374-.805 0-1.513-.187-2.125-.561-.601-.374-1.071-.901-1.411-1.581-.329-.68-.493-1.462-.493-2.346 0-.873.164-1.638.493-2.295a3.534 3.534 0 0 1 1.394-1.513c.6-.363 1.297-.544 2.091-.544 1.099 0 1.983.351 2.652 1.054.68.703 1.02 1.684 1.02 2.941Zm-8.588 3.791c0-.306-.181-.459-.544-.459h-.442v-3.52c0-2.538-.929-3.807-2.788-3.807-.578 0-1.139.198-1.683.595-.521.37-.923.884-1.156 1.479v-1.275a.57.57 0 0 0-.187-.442.574.574 0 0 0-.442-.187h-1.343c-.363 0-.544.153-.544.459v.425c0 .306.181.459.544.459h.442v5.814h-.442c-.363 0-.544.153-.544.459v.425c0 .306.181.459.544.459h2.363c.374 0 .561-.153.561-.459v-.425c0-.306-.187-.459-.561-.459h-.391v-3.111c0-.487.113-.952.34-1.394.221-.422.535-.788.918-1.071.385-.283.788-.425 1.207-.425.601 0 1.02.204 1.258.612.249.397.374 1.1.374 2.108v3.281h-.391c-.374 0-.561.153-.561.459v.425c0 .306.187.459.561.459h2.363c.363 0 .544-.153.544-.459v-.425Zm-12.087-9.265c-.318 0-.584-.108-.799-.323a1.087 1.087 0 0 1-.323-.8c0-.316.107-.577.323-.781.215-.215.481-.323.799-.323.317 0 .578.108.782.323.215.204.323.465.323.782s-.108.584-.323.799a1.027 1.027 0 0 1-.782.323ZM122.451 104c-.363 0-.544-.153-.544-.459v-.425c0-.306.181-.459.544-.459h.442v-5.814h-.442c-.363 0-.544-.153-.544-.46v-.424c0-.306.181-.46.544-.46h1.343a.573.573 0 0 1 .442.188.57.57 0 0 1 .187.442v6.528h.442c.374 0 .561.153.561.459v.425c0 .306-.187.459-.561.459h-2.414Zm-5.003-.459c0 .306.187.459.561.459h2.397c.374 0 .561-.153.561-.459v-.425c0-.306-.187-.459-.561-.459h-.442V92.049a.57.57 0 0 0-.187-.442.546.546 0 0 0-.425-.187h-1.343c-.374 0-.561.153-.561.459v.425c0 .306.187.459.561.459h.442v9.894h-.442c-.374 0-.561.153-.561.459v.425Zm-1.226-.884c.362 0 .544.153.544.459v.425c0 .306-.182.459-.544.459h-2.363c-.374 0-.561-.153-.561-.459v-.425c0-.306.187-.459.561-.459h.391v-3.281c0-1.009-.125-1.711-.374-2.108-.238-.408-.658-.612-1.258-.612-.42 0-.822.142-1.207.425a3.142 3.142 0 0 0-.918 1.07 3.01 3.01 0 0 0-.34 1.395v3.111h.391c.374 0 .561.153.561.459v.425c0 .306-.187.459-.561.459h-2.363c-.363 0-.544-.153-.544-.459v-.425c0-.306.181-.459.544-.459h.442v-5.814h-.442c-.363 0-.544-.153-.544-.46v-.424c0-.306.181-.46.544-.46h1.343a.573.573 0 0 1 .442.188.57.57 0 0 1 .187.442v1.275c.238-.6.623-1.094 1.156-1.48.544-.396 1.105-.594 1.683-.594 1.858 0 2.788 1.27 2.788 3.808v3.519h.442Zm-18.237.799c.782.476 1.706.714 2.771.714 1.088 0 2.04-.255 2.856-.765.816-.521 1.445-1.252 1.887-2.193.442-.952.663-2.063.663-3.332 0-1.213-.21-2.267-.629-3.162-.419-.895-1.02-1.581-1.802-2.057-.782-.487-1.7-.731-2.754-.731-1.088 0-2.04.26-2.856.782-.816.51-1.445 1.24-1.887 2.193-.442.94-.663 2.04-.663 3.298 0 1.213.21 2.272.629 3.179.42.895 1.014 1.587 1.785 2.074Zm-8.433-2.244c.181 0 .34.057.476.17a.466.466 0 0 1 .204.391c0 .181-.056.385-.17.612-.26.521-.572.952-.935 1.292-.362.329-.861.493-1.496.493-.93 0-1.638-.278-2.125-.833-.476-.555-.714-1.366-.714-2.431v-4.08h-1.054c-.204 0-.362-.051-.476-.153-.102-.102-.153-.244-.153-.425v-.187c0-.181.051-.317.153-.408.114-.102.272-.153.476-.153h1.054v-1.564c0-.204.051-.357.153-.46a.62.62 0 0 1 .46-.17h.322c.193 0 .34.058.442.17.102.103.153.256.153.46V95.5h2.21c.204 0 .357.05.46.153.112.09.17.227.17.408v.187a.543.543 0 0 1-.17.425c-.103.102-.256.153-.46.153h-2.21v4.046c0 1.315.453 1.972 1.36 1.972.352 0 .612-.091.782-.272.181-.193.368-.51.561-.952.08-.147.153-.249.221-.306a.453.453 0 0 1 .306-.102Zm-7.918-1.105c-.442-.397-1.196-.748-2.261-1.054-.47-.135-.936-.288-1.394-.46-.306-.124-.522-.254-.646-.39a.704.704 0 0 1-.187-.493c0-.363.164-.657.493-.884.328-.227.76-.34 1.292-.34.77 0 1.28.142 1.53.425a.782.782 0 0 0-.221.578c0 .272.085.499.255.68a.923.923 0 0 0 .68.272c.294 0 .532-.096.714-.29.181-.203.272-.47.272-.798 0-.635-.284-1.128-.85-1.48-.567-.362-1.355-.543-2.363-.543-.646 0-1.224.102-1.734.306-.499.204-.89.493-1.173.867a1.986 1.986 0 0 0-.425 1.258c0 .453.102.833.306 1.139.204.295.538.567 1.003.816.476.238 1.139.476 1.989.714.521.147.906.283 1.156.408.26.113.442.249.544.408.102.147.153.34.153.578 0 .363-.165.652-.493.867-.318.215-.782.323-1.394.323-.896 0-1.48-.193-1.751-.578a.78.78 0 0 0 .22-.578.903.903 0 0 0-.271-.663.847.847 0 0 0-.646-.272c-.306 0-.55.096-.731.289-.182.193-.272.453-.272.782 0 .646.311 1.173.935 1.581.634.397 1.479.595 2.533.595.668 0 1.258-.108 1.768-.323.521-.215.923-.51 1.207-.884.283-.385.425-.822.425-1.309 0-.646-.221-1.162-.663-1.547Zm-7.425-.782c0 .057-.017.306-.05.748h-6.036c.057.861.306 1.541.748 2.04.442.487 1.032.731 1.768.731.499 0 .896-.079 1.19-.238.295-.159.573-.442.833-.85.09-.136.176-.232.255-.289a.64.64 0 0 1 .748.085.466.466 0 0 1 .204.391c0 .215-.08.436-.238.663-.328.533-.736.929-1.224 1.19-.487.249-1.093.374-1.819.374-.804 0-1.513-.187-2.125-.561-.6-.374-1.07-.901-1.41-1.581-.33-.68-.494-1.462-.494-2.346 0-.873.165-1.638.493-2.295a3.54 3.54 0 0 1 1.394-1.513c.6-.363 1.298-.544 2.091-.544 1.1 0 1.984.351 2.652 1.054.68.703 1.02 1.684 1.02 2.941Zm-9.726-.765c-.397-.499-.969-.844-1.717-1.037.578-.283 1.02-.646 1.326-1.088.306-.442.459-.952.459-1.53 0-1.87-1.371-2.805-4.114-2.805h-3.876c-.374 0-.561.153-.561.459v.425c0 .306.187.459.561.459h.442v9.214h-.442c-.374 0-.561.153-.561.459v.425c0 .306.187.459.561.459h3.689c1.53 0 2.72-.317 3.57-.952.85-.635 1.275-1.519 1.275-2.652 0-.725-.204-1.337-.612-1.836Z" clip-rule="evenodd"></path><path fill="#003341" fill-opacity=".75" d="M121.249 43.708c-.641-.696-1.475-1.19-2.401-1.506-.919-.31-1.946-.448-3.026-.448-.587 0-1.196.039-1.814.123.154-.887.239-1.806.239-2.732 0-1.644-.262-3.327-.857-5.002l-.201-.563-.594.046c-2.516.216-4.886 1.05-6.986 2.293-1.027-2.224-3.277-4.972-5.345-6.138-2.07 1.166-4.32 3.914-5.347 6.138-2.1-1.243-4.47-2.077-6.986-2.293l-.594-.046-.201.563a14.886 14.886 0 0 0-.857 5.002c0 .926.085 1.845.24 2.732a13.388 13.388 0 0 0-1.815-.123c-1.08 0-2.107.139-3.025.448-.927.317-1.761.81-2.402 1.506l-.277.3.093.402c1.126 4.894 3.458 8.197 6.553 10.204 3.095 2.014 6.878 2.732 10.93 2.732 1.073 0 2.17-.054 3.273-.147.028.007.383.005.415.007.029-.002.385 0 .413-.007 1.104.093 2.2.147 3.273.147 4.053 0 7.835-.718 10.931-2.732 3.094-2.007 5.425-5.31 6.552-10.204l.093-.402-.277-.3Zm-13.803.316c-.077-2.27-.478-4.57-1.242-6.663 1.806-1.095 3.813-1.852 5.928-2.122.394 1.312.571 2.617.571 3.906a15.23 15.23 0 0 1-.316 3.026c-.124.579-.278 1.15-.456 1.714a19.19 19.19 0 0 1-1.906 4.106c-1.181 1.93-2.632 3.589-4.068 4.825.896-1.992 1.397-4.462 1.482-7.04.015-.294.023-.587.023-.88 0-.285-.008-.579-.016-.872Zm-19.052-8.785c2.115.27 4.121 1.027 5.928 2.122-.765 2.092-1.165 4.393-1.243 6.663-.008.293-.015.587-.015.872 0 .293.007.586.023.88.085 2.578.586 5.048 1.482 7.04-1.436-1.236-2.887-2.895-4.068-4.825a19.168 19.168 0 0 1-1.906-4.106 18.636 18.636 0 0 1-.456-1.714c-.2-.989-.316-2-.316-3.026 0-1.289.177-2.594.571-3.906Zm-1.906 18.078c-2.649-1.728-4.686-4.477-5.79-8.838.433-.364.934-.64 1.474-.81.726-.247 1.583-.37 2.532-.37.688 0 1.42.06 2.177.2.803 3.003 2.362 5.712 4.145 7.888 1.32 1.598 2.755 2.91 4.16 3.837.324.216.65.409.966.572-3.706-.047-7.025-.749-9.664-2.479Zm16.126 1.56c-.023.014-.046.038-.069.053a3.58 3.58 0 0 1-1.544.695c-.038.008-.069.008-.108.016h-.03c-.031.007-.07.007-.109.015h-.008c-.052.004-.428.007-.482.01-.055-.003-.432-.006-.484-.01h-.008c-.04-.008-.078-.008-.11-.015h-.03c-.038-.008-.069-.008-.107-.016a3.58 3.58 0 0 1-1.545-.694c-.023-.016-.045-.04-.069-.055-.988-.78-1.837-2.168-2.416-3.929-.41-1.235-.679-2.648-.802-4.138a22.01 22.01 0 0 1-.086-1.906v-.007c0-2.254.34-4.57 1.035-6.647.116-.347.24-.679.37-1.003.07-.162.14-.324.217-.486.856-1.922 2.459-3.984 4.034-4.995 1.574 1.011 3.178 3.073 4.034 4.995.077.162.147.324.216.486.132.324.255.656.371 1.003.694 2.077 1.034 4.393 1.034 6.647v.007c0 .648-.031 1.282-.085 1.907-.124 1.49-.393 2.902-.803 4.137-.578 1.76-1.427 3.15-2.416 3.93Zm11.424-1.56c-2.64 1.729-5.959 2.432-9.664 2.478.317-.162.642-.355.966-.571 1.405-.927 2.84-2.239 4.16-3.837 1.783-2.176 3.342-4.885 4.145-7.888.756-.14 1.489-.2 2.177-.2.949 0 1.806.123 2.532.37.54.17 1.041.446 1.474.81-1.104 4.36-3.142 7.111-5.79 8.838Zm-1.297 15.677c.988 0 1.751.264 2.288.793.538.529.806 1.257.806 2.184 0 .633-.143 1.187-.429 1.664a2.87 2.87 0 0 1-1.209 1.105c-.52.26-1.122.39-1.807.39-.58 0-1.105-.087-1.573-.26-.459-.182-.823-.429-1.092-.741a1.602 1.602 0 0 1-.39-1.053c0-.347.104-.628.312-.845.208-.225.477-.338.806-.338.33 0 .594.095.793.286.2.182.299.42.299.715 0 .173-.03.325-.091.455.2.173.512.26.936.26.486 0 .871-.139 1.157-.416.286-.286.429-.672.429-1.157s-.147-.858-.442-1.118c-.294-.269-.706-.403-1.235-.403-.268 0-.498.03-.689.091-.214.07-.423.158-.624.26-.26.13-.468.195-.624.195-.216 0-.377-.039-.481-.117-.095-.087-.143-.221-.143-.403 0-.26.074-1.543.221-3.848.009-.26.083-.455.221-.585.148-.139.347-.208.598-.208h4.121a.632.632 0 0 1 .468.182c.13.121.195.273.195.455v.26a.59.59 0 0 1-.195.455.632.632 0 0 1-.468.182l-3.224-.026-.091 1.794c.312-.139.698-.208 1.157-.208Zm-5.245 3.666c.174 0 .299.052.377.156.087.104.13.243.13.416v1.092c0 .19-.069.351-.208.481a.67.67 0 0 1-.494.195h-4.576v-.013l-.624.013a.584.584 0 0 1-.429-.169.606.606 0 0 1-.156-.429v-.546c0-.52.065-.958.195-1.313.139-.355.377-.693.715-1.014.338-.32.832-.689 1.482-1.105.555-.355.967-.641 1.235-.858.269-.217.455-.416.559-.598.104-.19.156-.403.156-.637a.963.963 0 0 0-.325-.754c-.216-.19-.507-.286-.871-.286-.528 0-.888.134-1.079.403.104.165.156.364.156.598a.96.96 0 0 1-.299.728c-.199.182-.463.273-.793.273-.329 0-.598-.108-.806-.325-.208-.225-.312-.516-.312-.871 0-.442.13-.84.39-1.196.26-.355.624-.633 1.092-.832.468-.2.997-.299 1.586-.299.598 0 1.136.108 1.612.325.477.217.845.52 1.105.91.269.381.403.819.403 1.313 0 .477-.078.884-.234 1.222-.156.338-.437.685-.845 1.04-.398.355-1.001.793-1.807 1.313-.546.347-.918.624-1.118.832-.19.208-.307.46-.351.754l3.12-.013v-.234c0-.173.039-.312.117-.416.087-.104.217-.156.39-.156h.507Zm-11.111 2.47c-.763 0-1.422-.186-1.977-.559-.554-.373-.979-.901-1.273-1.586-.295-.685-.443-1.49-.443-2.418 0-.988.144-1.842.43-2.561.294-.72.719-1.27 1.273-1.651.555-.39 1.218-.585 1.99-.585.762 0 1.416.186 1.962.559.555.373.98.901 1.275 1.586.294.685.442 1.49.442 2.418 0 .988-.148 1.842-.442 2.561-.287.72-.707 1.274-1.261 1.664-.547.381-1.204.572-1.976.572Zm0-1.521c.623 0 1.083-.269 1.377-.806.295-.537.442-1.356.442-2.457 0-2.037-.606-3.055-1.82-3.055-.632 0-1.096.269-1.39.806-.287.529-.43 1.343-.43 2.444 0 1.023.148 1.79.443 2.301.303.511.763.767 1.378.767Zm-5.405-.949c.173 0 .299.052.377.156.087.104.13.243.13.416v1.092c0 .19-.07.351-.208.481a.668.668 0 0 1-.494.195h-4.576v-.013l-.624.013a.58.58 0 0 1-.43-.169.608.608 0 0 1-.155-.429v-.546c0-.52.065-.958.195-1.313.139-.355.377-.693.715-1.014.338-.32.832-.689 1.482-1.105.555-.355.966-.641 1.235-.858.269-.217.455-.416.559-.598.104-.19.156-.403.156-.637a.957.957 0 0 0-.325-.754c-.217-.19-.507-.286-.871-.286-.529 0-.889.134-1.08.403.105.165.157.364.157.598 0 .295-.1.537-.3.728-.198.182-.463.273-.792.273-.33 0-.598-.108-.806-.325-.208-.225-.312-.516-.312-.871 0-.442.13-.84.39-1.196.26-.355.624-.633 1.092-.832.468-.2.996-.299 1.586-.299.598 0 1.135.108 1.612.325.477.217.845.52 1.105.91.269.381.403.819.403 1.313 0 .477-.078.884-.234 1.222-.156.338-.438.685-.845 1.04-.399.355-1.001.793-1.807 1.313-.546.347-.919.624-1.118.832-.19.208-.308.46-.351.754l3.12-.013v-.234c0-.173.039-.312.117-.416.087-.104.216-.156.39-.156h.507Z"></path></svg> 